<svg width="376" height="37" viewBox="0 0 376 37" fill="none" xmlns="http://www.w3.org/2000/svg">
<g clip-path="url(#clip0_1_946)">
<path d="M2.48148 8H29.1481C29.5411 8 29.9179 8.12292 30.1957 8.34171C30.4736 8.5605 30.6297 8.85725 30.6297 9.16666V27.8334C30.6297 28.1428 30.4736 28.4395 30.1957 28.6583C29.9179 28.8771 29.5411 29 29.1481 29H2.48148C2.08857 29 1.71175 28.8771 1.43392 28.6583C1.15608 28.4395 1 28.1428 1 27.8334V9.16666C1 8.85725 1.15608 8.5605 1.43392 8.34171C1.71175 8.12292 2.08857 8 2.48148 8ZM15.9037 18.1301L6.40444 11.7777L4.48592 13.5557L15.923 21.2031L27.1541 13.5498L25.2163 11.7847L15.9052 18.1301H15.9037Z" fill="#424242" fill-opacity="0.5"/>
</g>
<path d="M39.7061 12.25V25H38.1704V12.25H39.7061ZM39.3408 20.1689L38.7017 20.144C38.7072 19.5298 38.7985 18.9626 38.9756 18.4424C39.1527 17.9167 39.4017 17.4601 39.7227 17.0728C40.0436 16.6854 40.4255 16.3866 40.8682 16.1763C41.3164 15.9604 41.8117 15.8525 42.354 15.8525C42.7967 15.8525 43.1951 15.9134 43.5493 16.0352C43.9035 16.1514 44.2051 16.3395 44.4541 16.5996C44.7087 16.8597 44.9023 17.1973 45.0352 17.6123C45.168 18.0218 45.2344 18.5226 45.2344 19.1147V25H43.6904V19.0981C43.6904 18.6278 43.6213 18.2515 43.4829 17.9692C43.3446 17.6815 43.1426 17.474 42.877 17.3467C42.6113 17.2139 42.2848 17.1475 41.8975 17.1475C41.5156 17.1475 41.167 17.2277 40.8516 17.3882C40.5417 17.5487 40.2733 17.77 40.0464 18.0522C39.825 18.3345 39.6507 18.6582 39.5234 19.0234C39.4017 19.3831 39.3408 19.765 39.3408 20.1689ZM49.2021 16.0186V25H47.6582V16.0186H49.2021ZM47.542 13.6362C47.542 13.3872 47.6167 13.1769 47.7661 13.0054C47.9211 12.8338 48.1479 12.748 48.4468 12.748C48.7401 12.748 48.9642 12.8338 49.1191 13.0054C49.2796 13.1769 49.3599 13.3872 49.3599 13.6362C49.3599 13.8742 49.2796 14.0789 49.1191 14.2505C48.9642 14.4165 48.7401 14.4995 48.4468 14.4995C48.1479 14.4995 47.9211 14.4165 47.7661 14.2505C47.6167 14.0789 47.542 13.8742 47.542 13.6362ZM64.9072 20.8247C64.8851 21.3338 64.8076 21.8457 64.6748 22.3604C64.542 22.8695 64.3428 23.3371 64.0771 23.7632C63.8115 24.1893 63.4657 24.5324 63.0396 24.7925C62.619 25.047 62.1099 25.1743 61.5122 25.1743C61.1304 25.1743 60.7956 25.1079 60.5078 24.9751C60.2256 24.8368 59.9932 24.6403 59.8105 24.3857C59.6335 24.1312 59.509 23.8241 59.437 23.4644C59.3706 23.1047 59.3595 22.7035 59.4038 22.2607L59.8271 17.6621H61.0474L60.624 22.2607C60.5908 22.6647 60.5991 22.994 60.6489 23.2485C60.7043 23.5031 60.7873 23.6995 60.8979 23.8379C61.0086 23.9707 61.1331 24.062 61.2715 24.1118C61.4154 24.1616 61.5537 24.1865 61.6865 24.1865C62.0186 24.1865 62.3146 24.1007 62.5747 23.9292C62.8348 23.7521 63.0534 23.5114 63.2305 23.207C63.4131 22.8971 63.5542 22.5402 63.6538 22.1362C63.7534 21.7267 63.8143 21.2896 63.8364 20.8247C63.8752 20.0002 63.8364 19.242 63.7202 18.5503C63.6095 17.8586 63.4186 17.2443 63.1475 16.7075C62.8818 16.1707 62.5332 15.717 62.1016 15.3462C61.6699 14.9754 61.1553 14.6932 60.5576 14.4995C59.96 14.3058 59.2765 14.209 58.5073 14.209C57.8101 14.209 57.1654 14.3169 56.5732 14.5327C55.9867 14.743 55.4582 15.0474 54.9878 15.4458C54.5229 15.8442 54.1217 16.3229 53.7842 16.8818C53.4521 17.4408 53.1893 18.0716 52.9956 18.7744C52.8075 19.4717 52.6968 20.2243 52.6636 21.0322C52.6248 21.8623 52.6691 22.626 52.7964 23.3232C52.9237 24.015 53.1284 24.632 53.4106 25.1743C53.6984 25.7222 54.0609 26.1842 54.498 26.5605C54.9352 26.9424 55.4416 27.2301 56.0171 27.4238C56.5926 27.623 57.2345 27.7227 57.9429 27.7227C58.4299 27.7227 58.9224 27.6646 59.4204 27.5483C59.924 27.4321 60.3446 27.2744 60.6821 27.0752L60.9976 28.0215C60.6102 28.2705 60.126 28.4559 59.5449 28.5776C58.9694 28.6994 58.4243 28.7603 57.9097 28.7603C57.0685 28.7603 56.2993 28.644 55.6021 28.4116C54.9103 28.1847 54.2961 27.8499 53.7593 27.4072C53.228 26.9701 52.7853 26.436 52.4312 25.8052C52.077 25.1799 51.8169 24.466 51.6509 23.6636C51.4849 22.8612 51.4212 21.984 51.46 21.0322C51.4987 20.1247 51.6343 19.2697 51.8667 18.4673C52.1047 17.6649 52.4284 16.9372 52.8379 16.2842C53.2474 15.6312 53.7344 15.0695 54.2988 14.5991C54.8688 14.1232 55.508 13.758 56.2163 13.5034C56.9302 13.2489 57.7049 13.1216 58.5405 13.1216C59.3927 13.1216 60.1647 13.2378 60.8564 13.4702C61.5482 13.7026 62.1541 14.0374 62.6743 14.4746C63.2 14.9118 63.6344 15.4458 63.9775 16.0767C64.3206 16.7075 64.5697 17.4214 64.7246 18.2183C64.8851 19.0151 64.946 19.884 64.9072 20.8247ZM56.3823 21.5303C56.3436 21.9176 56.3436 22.2635 56.3823 22.5679C56.4211 22.8722 56.4958 23.1296 56.6064 23.3398C56.7171 23.5501 56.861 23.7106 57.0381 23.8213C57.2207 23.9264 57.4338 23.979 57.6772 23.979C57.8377 23.979 58.0065 23.9403 58.1836 23.8628C58.3607 23.7798 58.535 23.6525 58.7065 23.481C58.8781 23.3094 59.0386 23.0853 59.188 22.8086C59.3374 22.5319 59.4619 22.1999 59.5615 21.8125L60.1094 22.4102C59.9821 22.8639 59.8161 23.2624 59.6113 23.6055C59.4121 23.9486 59.188 24.2363 58.939 24.4688C58.6899 24.7012 58.4243 24.8783 58.1421 25C57.8654 25.1162 57.5832 25.1743 57.2954 25.1743C56.8914 25.1743 56.5373 25.0885 56.2329 24.917C55.9285 24.7399 55.6823 24.4909 55.4941 24.1699C55.306 23.849 55.1732 23.4671 55.0957 23.0244C55.0238 22.5762 55.0127 22.0781 55.0625 21.5303C55.1123 20.9492 55.2147 20.4124 55.3696 19.9199C55.5246 19.4274 55.7155 18.9875 55.9424 18.6001C56.1748 18.2127 56.4349 17.8835 56.7227 17.6123C57.016 17.3411 57.3258 17.1364 57.6523 16.998C57.9788 16.8542 58.3136 16.7822 58.6567 16.7822C59.2544 16.7822 59.7248 16.8708 60.0679 17.0479C60.411 17.2194 60.7375 17.4242 61.0474 17.6621L60.3418 18.4839C60.1813 18.3289 59.971 18.1851 59.7109 18.0522C59.4508 17.9194 59.1437 17.853 58.7896 17.853C58.4852 17.853 58.2002 17.9305 57.9346 18.0854C57.6689 18.2404 57.4282 18.4728 57.2124 18.7827C57.0021 19.0926 56.825 19.4772 56.6812 19.9365C56.5373 20.3903 56.4377 20.9215 56.3823 21.5303ZM70.7012 16.0186V17.1973H65.8452V16.0186H70.7012ZM67.4888 13.8354H69.0244V22.7754C69.0244 23.0798 69.0715 23.3094 69.1655 23.4644C69.2596 23.6193 69.3813 23.7217 69.5308 23.7715C69.6802 23.8213 69.8407 23.8462 70.0122 23.8462C70.1395 23.8462 70.2723 23.8351 70.4106 23.813C70.5545 23.7853 70.6624 23.7632 70.7344 23.7466L70.7427 25C70.6209 25.0387 70.4604 25.0747 70.2612 25.1079C70.0675 25.1466 69.8324 25.166 69.5557 25.166C69.1794 25.166 68.8335 25.0913 68.5181 24.9419C68.2026 24.7925 67.9508 24.5435 67.7627 24.1948C67.5801 23.8407 67.4888 23.3647 67.4888 22.7671V13.8354ZM74.0381 12.25V25H72.5024V12.25H74.0381ZM73.6729 20.1689L73.0337 20.144C73.0392 19.5298 73.1305 18.9626 73.3076 18.4424C73.4847 17.9167 73.7337 17.4601 74.0547 17.0728C74.3757 16.6854 74.7575 16.3866 75.2002 16.1763C75.6484 15.9604 76.1437 15.8525 76.686 15.8525C77.1287 15.8525 77.5272 15.9134 77.8813 16.0352C78.2355 16.1514 78.5371 16.3395 78.7861 16.5996C79.0407 16.8597 79.2344 17.1973 79.3672 17.6123C79.5 18.0218 79.5664 18.5226 79.5664 19.1147V25H78.0225V19.0981C78.0225 18.6278 77.9533 18.2515 77.8149 17.9692C77.6766 17.6815 77.4746 17.474 77.209 17.3467C76.9434 17.2139 76.6169 17.1475 76.2295 17.1475C75.8477 17.1475 75.499 17.2277 75.1836 17.3882C74.8737 17.5487 74.6053 17.77 74.3784 18.0522C74.1571 18.3345 73.9827 18.6582 73.8555 19.0234C73.7337 19.3831 73.6729 19.765 73.6729 20.1689ZM85.5928 25.166C84.9674 25.166 84.4002 25.0609 83.8911 24.8506C83.3875 24.6348 82.9531 24.3332 82.5879 23.9458C82.2282 23.5584 81.9515 23.0991 81.7578 22.5679C81.5641 22.0366 81.4673 21.4556 81.4673 20.8247V20.4761C81.4673 19.7456 81.5752 19.0954 81.791 18.5254C82.0068 17.9499 82.3001 17.4629 82.6709 17.0645C83.0417 16.666 83.4622 16.3644 83.9326 16.1597C84.403 15.9549 84.89 15.8525 85.3936 15.8525C86.0355 15.8525 86.5889 15.9632 87.0537 16.1846C87.5241 16.4059 87.9087 16.7158 88.2075 17.1143C88.5063 17.5072 88.7277 17.972 88.8716 18.5088C89.0155 19.04 89.0874 19.6211 89.0874 20.252V20.9409H82.3804V19.6875H87.5518V19.5713C87.5296 19.1729 87.4466 18.7855 87.3027 18.4092C87.1644 18.0329 86.943 17.723 86.6387 17.4795C86.3343 17.236 85.9193 17.1143 85.3936 17.1143C85.0449 17.1143 84.724 17.189 84.4307 17.3384C84.1374 17.4823 83.8856 17.6981 83.6753 17.9858C83.465 18.2736 83.3018 18.625 83.1855 19.04C83.0693 19.4551 83.0112 19.9338 83.0112 20.4761V20.8247C83.0112 21.2508 83.0693 21.652 83.1855 22.0283C83.3073 22.3991 83.4816 22.7256 83.7085 23.0078C83.9409 23.29 84.2204 23.5114 84.5469 23.6719C84.8789 23.8324 85.2552 23.9126 85.6758 23.9126C86.2181 23.9126 86.6774 23.8019 87.0537 23.5806C87.43 23.3592 87.7593 23.0632 88.0415 22.6924L88.9712 23.4312C88.7775 23.7244 88.5312 24.0039 88.2324 24.2695C87.9336 24.5352 87.5656 24.751 87.1284 24.917C86.6968 25.083 86.1849 25.166 85.5928 25.166ZM93.1714 25H91.6357V15.0723C91.6357 14.4248 91.752 13.8797 91.9844 13.437C92.2223 12.9888 92.5627 12.6512 93.0054 12.4243C93.4481 12.1919 93.9738 12.0757 94.5825 12.0757C94.7596 12.0757 94.9367 12.0868 95.1138 12.1089C95.2964 12.131 95.4735 12.1642 95.645 12.2085L95.562 13.4619C95.4458 13.4342 95.313 13.4149 95.1636 13.4038C95.0197 13.3927 94.8758 13.3872 94.7319 13.3872C94.4054 13.3872 94.1232 13.4536 93.8853 13.5864C93.6528 13.7137 93.4757 13.9019 93.354 14.1509C93.2323 14.3999 93.1714 14.707 93.1714 15.0723V25ZM95.0806 16.0186V17.1973H90.2163V16.0186H95.0806ZM96.3838 20.6089V20.418C96.3838 19.7705 96.4779 19.1701 96.666 18.6167C96.8542 18.0578 97.1253 17.5736 97.4795 17.1641C97.8337 16.749 98.2625 16.4281 98.7661 16.2012C99.2697 15.9688 99.8341 15.8525 100.459 15.8525C101.09 15.8525 101.658 15.9688 102.161 16.2012C102.67 16.4281 103.102 16.749 103.456 17.1641C103.816 17.5736 104.09 18.0578 104.278 18.6167C104.466 19.1701 104.56 19.7705 104.56 20.418V20.6089C104.56 21.2563 104.466 21.8568 104.278 22.4102C104.09 22.9635 103.816 23.4478 103.456 23.8628C103.102 24.2723 102.673 24.5933 102.169 24.8257C101.671 25.0526 101.107 25.166 100.476 25.166C99.8452 25.166 99.278 25.0526 98.7744 24.8257C98.2708 24.5933 97.8392 24.2723 97.4795 23.8628C97.1253 23.4478 96.8542 22.9635 96.666 22.4102C96.4779 21.8568 96.3838 21.2563 96.3838 20.6089ZM97.9194 20.418V20.6089C97.9194 21.0571 97.972 21.4805 98.0771 21.8789C98.1823 22.2718 98.34 22.6204 98.5503 22.9248C98.7661 23.2292 99.0345 23.4699 99.3555 23.647C99.6764 23.8185 100.05 23.9043 100.476 23.9043C100.897 23.9043 101.265 23.8185 101.58 23.647C101.901 23.4699 102.167 23.2292 102.377 22.9248C102.587 22.6204 102.745 22.2718 102.85 21.8789C102.961 21.4805 103.016 21.0571 103.016 20.6089V20.418C103.016 19.9753 102.961 19.5575 102.85 19.1646C102.745 18.7661 102.584 18.4147 102.369 18.1104C102.158 17.8005 101.893 17.557 101.572 17.3799C101.256 17.2028 100.886 17.1143 100.459 17.1143C100.039 17.1143 99.6681 17.2028 99.3472 17.3799C99.0317 17.557 98.7661 17.8005 98.5503 18.1104C98.34 18.4147 98.1823 18.7661 98.0771 19.1646C97.972 19.5575 97.9194 19.9753 97.9194 20.418ZM108.154 12.25V25H106.61V12.25H108.154ZM112.288 16.0186V25H110.744V16.0186H112.288ZM110.628 13.6362C110.628 13.3872 110.703 13.1769 110.852 13.0054C111.007 12.8338 111.234 12.748 111.533 12.748C111.826 12.748 112.05 12.8338 112.205 13.0054C112.366 13.1769 112.446 13.3872 112.446 13.6362C112.446 13.8742 112.366 14.0789 112.205 14.2505C112.05 14.4165 111.826 14.4995 111.533 14.4995C111.234 14.4995 111.007 14.4165 110.852 14.2505C110.703 14.0789 110.628 13.8742 110.628 13.6362ZM114.347 20.6089V20.418C114.347 19.7705 114.441 19.1701 114.629 18.6167C114.817 18.0578 115.088 17.5736 115.442 17.1641C115.797 16.749 116.225 16.4281 116.729 16.2012C117.233 15.9688 117.797 15.8525 118.422 15.8525C119.053 15.8525 119.62 15.9688 120.124 16.2012C120.633 16.4281 121.065 16.749 121.419 17.1641C121.779 17.5736 122.053 18.0578 122.241 18.6167C122.429 19.1701 122.523 19.7705 122.523 20.418V20.6089C122.523 21.2563 122.429 21.8568 122.241 22.4102C122.053 22.9635 121.779 23.4478 121.419 23.8628C121.065 24.2723 120.636 24.5933 120.132 24.8257C119.634 25.0526 119.07 25.166 118.439 25.166C117.808 25.166 117.241 25.0526 116.737 24.8257C116.234 24.5933 115.802 24.2723 115.442 23.8628C115.088 23.4478 114.817 22.9635 114.629 22.4102C114.441 21.8568 114.347 21.2563 114.347 20.6089ZM115.882 20.418V20.6089C115.882 21.0571 115.935 21.4805 116.04 21.8789C116.145 22.2718 116.303 22.6204 116.513 22.9248C116.729 23.2292 116.997 23.4699 117.318 23.647C117.639 23.8185 118.013 23.9043 118.439 23.9043C118.86 23.9043 119.228 23.8185 119.543 23.647C119.864 23.4699 120.13 23.2292 120.34 22.9248C120.55 22.6204 120.708 22.2718 120.813 21.8789C120.924 21.4805 120.979 21.0571 120.979 20.6089V20.418C120.979 19.9753 120.924 19.5575 120.813 19.1646C120.708 18.7661 120.547 18.4147 120.332 18.1104C120.121 17.8005 119.856 17.557 119.535 17.3799C119.219 17.2028 118.848 17.1143 118.422 17.1143C118.002 17.1143 117.631 17.2028 117.31 17.3799C116.995 17.557 116.729 17.8005 116.513 18.1104C116.303 18.4147 116.145 18.7661 116.04 19.1646C115.935 19.5575 115.882 19.9753 115.882 20.418ZM124.474 24.1865C124.474 23.9264 124.554 23.7078 124.714 23.5308C124.88 23.3481 125.118 23.2568 125.428 23.2568C125.738 23.2568 125.973 23.3481 126.134 23.5308C126.3 23.7078 126.383 23.9264 126.383 24.1865C126.383 24.4411 126.3 24.6569 126.134 24.834C125.973 25.0111 125.738 25.0996 125.428 25.0996C125.118 25.0996 124.88 25.0111 124.714 24.834C124.554 24.6569 124.474 24.4411 124.474 24.1865ZM132.525 23.9043C132.891 23.9043 133.228 23.8296 133.538 23.6802C133.848 23.5308 134.103 23.326 134.302 23.0659C134.501 22.8003 134.614 22.4987 134.642 22.1611H136.103C136.075 22.6924 135.896 23.1877 135.563 23.647C135.237 24.1007 134.808 24.4688 134.277 24.751C133.746 25.0277 133.162 25.166 132.525 25.166C131.85 25.166 131.261 25.047 130.757 24.8091C130.259 24.5711 129.844 24.2446 129.512 23.8296C129.186 23.4146 128.939 22.9386 128.773 22.4019C128.613 21.8595 128.533 21.2868 128.533 20.6836V20.335C128.533 19.7318 128.613 19.1618 128.773 18.625C128.939 18.0827 129.186 17.604 129.512 17.189C129.844 16.7739 130.259 16.4474 130.757 16.2095C131.261 15.9715 131.85 15.8525 132.525 15.8525C133.228 15.8525 133.842 15.9964 134.368 16.2842C134.894 16.5664 135.306 16.9538 135.605 17.4463C135.909 17.9333 136.075 18.4867 136.103 19.1064H134.642C134.614 18.7357 134.509 18.4009 134.327 18.1021C134.15 17.8032 133.906 17.5653 133.596 17.3882C133.292 17.2056 132.935 17.1143 132.525 17.1143C132.055 17.1143 131.659 17.2083 131.338 17.3965C131.023 17.5791 130.771 17.8281 130.583 18.1436C130.4 18.4535 130.268 18.7993 130.185 19.1812C130.107 19.5575 130.068 19.9421 130.068 20.335V20.6836C130.068 21.0765 130.107 21.4639 130.185 21.8457C130.262 22.2275 130.392 22.5734 130.575 22.8833C130.763 23.1932 131.015 23.4422 131.33 23.6304C131.651 23.813 132.049 23.9043 132.525 23.9043ZM137.423 20.6089V20.418C137.423 19.7705 137.517 19.1701 137.705 18.6167C137.893 18.0578 138.164 17.5736 138.519 17.1641C138.873 16.749 139.302 16.4281 139.805 16.2012C140.309 15.9688 140.873 15.8525 141.499 15.8525C142.129 15.8525 142.697 15.9688 143.2 16.2012C143.709 16.4281 144.141 16.749 144.495 17.1641C144.855 17.5736 145.129 18.0578 145.317 18.6167C145.505 19.1701 145.599 19.7705 145.599 20.418V20.6089C145.599 21.2563 145.505 21.8568 145.317 22.4102C145.129 22.9635 144.855 23.4478 144.495 23.8628C144.141 24.2723 143.712 24.5933 143.208 24.8257C142.71 25.0526 142.146 25.166 141.515 25.166C140.884 25.166 140.317 25.0526 139.813 24.8257C139.31 24.5933 138.878 24.2723 138.519 23.8628C138.164 23.4478 137.893 22.9635 137.705 22.4102C137.517 21.8568 137.423 21.2563 137.423 20.6089ZM138.958 20.418V20.6089C138.958 21.0571 139.011 21.4805 139.116 21.8789C139.221 22.2718 139.379 22.6204 139.589 22.9248C139.805 23.2292 140.074 23.4699 140.395 23.647C140.715 23.8185 141.089 23.9043 141.515 23.9043C141.936 23.9043 142.304 23.8185 142.619 23.647C142.94 23.4699 143.206 23.2292 143.416 22.9248C143.626 22.6204 143.784 22.2718 143.889 21.8789C144 21.4805 144.055 21.0571 144.055 20.6089V20.418C144.055 19.9753 144 19.5575 143.889 19.1646C143.784 18.7661 143.624 18.4147 143.408 18.1104C143.197 17.8005 142.932 17.557 142.611 17.3799C142.295 17.2028 141.925 17.1143 141.499 17.1143C141.078 17.1143 140.707 17.2028 140.386 17.3799C140.071 17.557 139.805 17.8005 139.589 18.1104C139.379 18.4147 139.221 18.7661 139.116 19.1646C139.011 19.5575 138.958 19.9753 138.958 20.418ZM149.052 17.8032V25H147.508V16.0186H148.969L149.052 17.8032ZM148.737 20.1689L148.023 20.144C148.028 19.5298 148.109 18.9626 148.264 18.4424C148.419 17.9167 148.648 17.4601 148.953 17.0728C149.257 16.6854 149.636 16.3866 150.09 16.1763C150.544 15.9604 151.069 15.8525 151.667 15.8525C152.088 15.8525 152.475 15.9134 152.829 16.0352C153.183 16.1514 153.49 16.3368 153.75 16.5913C154.011 16.8459 154.213 17.1724 154.356 17.5708C154.5 17.9692 154.572 18.4507 154.572 19.0151V25H153.037V19.0898C153.037 18.6195 152.956 18.2432 152.796 17.9609C152.641 17.6787 152.42 17.474 152.132 17.3467C151.844 17.2139 151.507 17.1475 151.119 17.1475C150.665 17.1475 150.286 17.2277 149.982 17.3882C149.678 17.5487 149.434 17.77 149.251 18.0522C149.069 18.3345 148.936 18.6582 148.853 19.0234C148.776 19.3831 148.737 19.765 148.737 20.1689ZM154.556 19.3223L153.526 19.6377C153.532 19.1452 153.612 18.672 153.767 18.2183C153.928 17.7645 154.157 17.3605 154.456 17.0063C154.76 16.6522 155.134 16.3727 155.577 16.168C156.019 15.9577 156.526 15.8525 157.096 15.8525C157.577 15.8525 158.003 15.9162 158.374 16.0435C158.75 16.1707 159.066 16.3672 159.32 16.6328C159.58 16.8929 159.777 17.2277 159.91 17.6372C160.042 18.0467 160.109 18.5337 160.109 19.0981V25H158.565V19.0815C158.565 18.578 158.485 18.1878 158.324 17.9111C158.169 17.6289 157.948 17.4325 157.66 17.3218C157.378 17.2056 157.04 17.1475 156.647 17.1475C156.31 17.1475 156.011 17.2056 155.751 17.3218C155.491 17.438 155.272 17.5985 155.095 17.8032C154.918 18.0024 154.783 18.2321 154.688 18.4922C154.6 18.7523 154.556 19.029 154.556 19.3223Z" fill="#5C5C5C"/>
<defs>
<clipPath id="clip0_1_946">
<rect width="30" height="21" fill="white" transform="translate(1 8)"/>
</clipPath>
</defs>
</svg>
