<svg width="203" height="28" viewBox="0 0 203 28" fill="none" xmlns="http://www.w3.org/2000/svg">
<path d="M1.49201 24.0002V5.47439H9.10126C10.3778 5.47439 11.505 5.69819 12.4831 6.1458C13.4778 6.5934 14.257 7.25651 14.8206 8.13514C15.3843 9.01377 15.6661 10.0996 15.6661 11.3927C15.6661 12.6526 15.376 13.7219 14.7958 14.6005C14.2321 15.4792 13.4529 16.1506 12.4583 16.6148C11.4802 17.0624 10.3612 17.2862 9.10126 17.2862H5.34637V24.0002H1.49201ZM5.34637 13.9291H9.12612C9.93844 13.9291 10.585 13.697 11.0657 13.2329C11.5631 12.7687 11.8117 12.1553 11.8117 11.3927C11.8117 10.6136 11.5631 9.99186 11.0657 9.52768C10.585 9.0635 9.93844 8.83141 9.12612 8.83141H5.34637V13.9291ZM23.3187 24.2986C21.9759 24.2986 20.7491 23.9919 19.6384 23.3785C18.5442 22.7651 17.6739 21.928 17.0274 20.867C16.3808 19.7894 16.0576 18.5709 16.0576 17.2116C16.0576 15.8356 16.3808 14.6171 17.0274 13.5561C17.6739 12.4952 18.5442 11.658 19.6384 11.0446C20.7491 10.4312 21.9759 10.1245 23.3187 10.1245C24.6615 10.1245 25.8799 10.4312 26.9741 11.0446C28.0848 11.658 28.9634 12.4952 29.61 13.5561C30.2565 14.6171 30.5798 15.8356 30.5798 17.2116C30.5798 18.5709 30.2565 19.7894 29.61 20.867C28.9634 21.928 28.0848 22.7651 26.9741 23.3785C25.8799 23.9919 24.6615 24.2986 23.3187 24.2986ZM23.3187 20.9416C24.3465 20.9416 25.1671 20.5934 25.7805 19.8972C26.4104 19.2009 26.7254 18.3057 26.7254 17.2116C26.7254 16.134 26.4104 15.2471 25.7805 14.5508C25.1671 13.838 24.3465 13.4815 23.3187 13.4815C22.3074 13.4815 21.4868 13.838 20.8568 14.5508C20.2269 15.2471 19.9119 16.134 19.9119 17.2116C19.9119 18.3057 20.2269 19.2009 20.8568 19.8972C21.4868 20.5934 22.3074 20.9416 23.3187 20.9416ZM32.0724 24.0002V10.4229H35.5537V12.462C35.9019 11.6165 36.3909 11.0446 37.0209 10.7462C37.6674 10.4312 38.4051 10.2737 39.234 10.2737H40.6514V13.5064H38.861C37.9492 13.5064 37.2115 13.7882 36.6479 14.3519C36.0842 14.8989 35.8024 15.6781 35.8024 16.6894V24.0002H32.0724ZM48.9023 24.1494C47.2611 24.1494 45.9846 23.7101 45.0729 22.8315C44.1776 21.9363 43.73 20.6929 43.73 19.1014V13.6556H41.3926V10.4229H41.5666C43.0089 10.4229 43.73 9.72662 43.73 8.33407V6.34473H47.4601V10.4229H50.643V13.6556H47.4601V19.1014C47.4601 20.4774 48.2309 21.1654 49.7727 21.1654C50.0048 21.1654 50.2949 21.1405 50.643 21.0908V24.0251C50.0959 24.108 49.5157 24.1494 48.9023 24.1494ZM53.2128 24.0002V13.6556H50.9002V10.4229H53.2128V10.025C53.2128 8.41696 53.6853 7.17362 54.6303 6.295C55.5752 5.41637 56.8931 4.97705 58.5841 4.97705C59.0814 4.97705 59.5207 5.0185 59.902 5.10139V8.28434C59.587 8.23461 59.3135 8.20974 59.0814 8.20974C57.6557 8.20974 56.9429 8.81483 56.9429 10.025V10.4229H59.8772V13.6556H56.9429V24.0002H53.2128ZM67.4194 24.2986C66.0766 24.2986 64.8498 23.9919 63.7391 23.3785C62.6449 22.7651 61.7746 21.928 61.1281 20.867C60.4815 19.7894 60.1583 18.5709 60.1583 17.2116C60.1583 15.8356 60.4815 14.6171 61.1281 13.5561C61.7746 12.4952 62.6449 11.658 63.7391 11.0446C64.8498 10.4312 66.0766 10.1245 67.4194 10.1245C68.7622 10.1245 69.9807 10.4312 71.0748 11.0446C72.1855 11.658 73.0641 12.4952 73.7107 13.5561C74.3572 14.6171 74.6805 15.8356 74.6805 17.2116C74.6805 18.5709 74.3572 19.7894 73.7107 20.867C73.0641 21.928 72.1855 22.7651 71.0748 23.3785C69.9807 23.9919 68.7622 24.2986 67.4194 24.2986ZM67.4194 20.9416C68.4472 20.9416 69.2678 20.5934 69.8812 19.8972C70.5112 19.2009 70.8261 18.3057 70.8261 17.2116C70.8261 16.134 70.5112 15.2471 69.8812 14.5508C69.2678 13.838 68.4472 13.4815 67.4194 13.4815C66.4081 13.4815 65.5875 13.838 64.9576 14.5508C64.3276 15.2471 64.0126 16.134 64.0126 17.2116C64.0126 18.3057 64.3276 19.2009 64.9576 19.8972C65.5875 20.5934 66.4081 20.9416 67.4194 20.9416ZM76.1731 24.0002V5.47439H79.9031V24.0002H76.1731ZM82.1411 9.20441V5.47439H85.8711V9.20441H82.1411ZM82.1411 24.0002V10.4229H85.8711V24.0002H82.1411ZM94.6243 24.2986C93.2814 24.2986 92.0547 23.9919 90.944 23.3785C89.8498 22.7651 88.9795 21.928 88.3329 20.867C87.6864 19.7894 87.3631 18.5709 87.3631 17.2116C87.3631 15.8356 87.6864 14.6171 88.3329 13.5561C88.9795 12.4952 89.8498 11.658 90.944 11.0446C92.0547 10.4312 93.2814 10.1245 94.6243 10.1245C95.9671 10.1245 97.1855 10.4312 98.2797 11.0446C99.3904 11.658 100.269 12.4952 100.916 13.5561C101.562 14.6171 101.885 15.8356 101.885 17.2116C101.885 18.5709 101.562 19.7894 100.916 20.867C100.269 21.928 99.3904 22.7651 98.2797 23.3785C97.1855 23.9919 95.9671 24.2986 94.6243 24.2986ZM94.6243 20.9416C95.6521 20.9416 96.4727 20.5934 97.0861 19.8972C97.716 19.2009 98.031 18.3057 98.031 17.2116C98.031 16.134 97.716 15.2471 97.0861 14.5508C96.4727 13.838 95.6521 13.4815 94.6243 13.4815C93.613 13.4815 92.7924 13.838 92.1624 14.5508C91.5325 15.2471 91.2175 16.134 91.2175 17.2116C91.2175 18.3057 91.5325 19.2009 92.1624 19.8972C92.7924 20.5934 93.613 20.9416 94.6243 20.9416ZM116.574 24.2986C115.248 24.2986 114.013 24.0582 112.869 23.5775C111.742 23.0967 110.756 22.4253 109.91 21.5633C109.065 20.7012 108.402 19.69 107.921 18.5295C107.457 17.369 107.225 16.1008 107.225 14.7249C107.225 13.3489 107.457 12.0807 107.921 10.9203C108.385 9.7432 109.04 8.73195 109.885 7.88647C110.731 7.02442 111.717 6.36131 112.844 5.89713C113.988 5.41637 115.232 5.17599 116.574 5.17599C117.917 5.17599 119.119 5.39979 120.18 5.84739C121.258 6.295 122.169 6.8918 122.916 7.6378C123.662 8.38381 124.192 9.2127 124.507 10.1245L121.1 11.7657C120.785 10.8705 120.23 10.1328 119.434 9.55255C118.655 8.95575 117.702 8.65734 116.574 8.65734C115.48 8.65734 114.519 8.9143 113.69 9.42822C112.861 9.94213 112.214 10.655 111.75 11.5668C111.303 12.462 111.079 13.5147 111.079 14.7249C111.079 15.9351 111.303 16.996 111.75 17.9078C112.214 18.8196 112.861 19.5325 113.69 20.0464C114.519 20.5603 115.48 20.8172 116.574 20.8172C117.702 20.8172 118.655 20.5271 119.434 19.9469C120.23 19.3501 120.785 18.6041 121.1 17.7089L124.507 19.3501C124.192 20.2619 123.662 21.0908 122.916 21.8368C122.169 22.5828 121.258 23.1796 120.18 23.6272C119.119 24.0748 117.917 24.2986 116.574 24.2986ZM126.242 24.0002V10.4229H129.723V12.462C130.071 11.6165 130.56 11.0446 131.19 10.7462C131.837 10.4312 132.575 10.2737 133.403 10.2737H134.821V13.5064H133.03C132.119 13.5064 131.381 13.7882 130.817 14.3519C130.254 14.8989 129.972 15.6781 129.972 16.6894V24.0002H126.242ZM142.437 24.2986C141.011 24.2986 139.76 23.9836 138.682 23.3537C137.621 22.7071 136.792 21.8451 136.195 20.7675C135.615 19.69 135.325 18.4963 135.325 17.1867C135.325 15.8273 135.623 14.6171 136.22 13.5561C136.834 12.4952 137.654 11.658 138.682 11.0446C139.726 10.4312 140.895 10.1245 142.188 10.1245C143.465 10.1245 144.609 10.4229 145.62 11.0197C146.631 11.6165 147.435 12.4206 148.032 13.4318C148.629 14.4265 148.927 15.5538 148.927 16.8137C148.927 17.0789 148.911 17.3442 148.877 17.6094C148.861 17.8581 148.819 18.0736 148.753 18.256H139.204C139.32 19.1014 139.668 19.7811 140.249 20.295C140.829 20.809 141.575 21.0659 142.487 21.0659C143.15 21.0659 143.713 20.9333 144.178 20.668C144.658 20.4028 145.031 20.0381 145.297 19.5739L148.281 20.9913C147.866 21.986 147.137 22.79 146.092 23.4034C145.048 24.0002 143.829 24.2986 142.437 24.2986ZM142.188 13.1085C141.459 13.1085 140.837 13.3158 140.323 13.7302C139.809 14.1447 139.461 14.7415 139.279 15.5206H144.973C144.907 14.7912 144.617 14.211 144.103 13.7799C143.606 13.3323 142.967 13.1085 142.188 13.1085ZM154.451 24.2986C153.423 24.2986 152.528 24.1245 151.766 23.7764C151.02 23.4117 150.439 22.9309 150.025 22.3341C149.627 21.7207 149.428 21.041 149.428 20.295C149.428 19.2838 149.809 18.4549 150.572 17.8084C151.335 17.1452 152.404 16.6728 153.78 16.391L158.032 15.4957V15.0481C158.032 14.5342 157.841 14.1281 157.46 13.8297C157.079 13.5147 156.573 13.3572 155.943 13.3572C155.28 13.3572 154.692 13.5396 154.178 13.9043C153.68 14.2524 153.332 14.7332 153.133 15.3465L149.926 13.8048C150.323 12.6775 151.061 11.7823 152.139 11.1192C153.233 10.4561 154.501 10.1245 155.943 10.1245C157.104 10.1245 158.115 10.3317 158.977 10.7462C159.856 11.1606 160.535 11.7409 161.016 12.4869C161.513 13.2163 161.762 14.0701 161.762 15.0481V24.0002H158.281V22.7569C157.767 23.3039 157.195 23.7018 156.565 23.9505C155.952 24.1826 155.247 24.2986 154.451 24.2986ZM153.283 20.2453C153.283 20.6598 153.44 20.983 153.755 21.2151C154.07 21.4472 154.493 21.5633 155.023 21.5633C155.869 21.5633 156.582 21.298 157.162 20.7675C157.742 20.237 158.032 19.5905 158.032 18.8279V18.1814L154.451 18.9771C153.672 19.1595 153.283 19.5822 153.283 20.2453ZM170.015 24.1494C168.374 24.1494 167.098 23.7101 166.186 22.8315C165.291 21.9363 164.843 20.6929 164.843 19.1014V13.6556H162.506V10.4229H162.68C164.122 10.4229 164.843 9.72662 164.843 8.33407V6.34473H168.573V10.4229H171.756V13.6556H168.573V19.1014C168.573 20.4774 169.344 21.1654 170.886 21.1654C171.118 21.1654 171.408 21.1405 171.756 21.0908V24.0251C171.209 24.108 170.629 24.1494 170.015 24.1494ZM179.772 24.2986C178.429 24.2986 177.202 23.9919 176.091 23.3785C174.997 22.7651 174.127 21.928 173.48 20.867C172.834 19.7894 172.511 18.5709 172.511 17.2116C172.511 15.8356 172.834 14.6171 173.48 13.5561C174.127 12.4952 174.997 11.658 176.091 11.0446C177.202 10.4312 178.429 10.1245 179.772 10.1245C181.115 10.1245 182.333 10.4312 183.427 11.0446C184.538 11.658 185.417 12.4952 186.063 13.5561C186.71 14.6171 187.033 15.8356 187.033 17.2116C187.033 18.5709 186.71 19.7894 186.063 20.867C185.417 21.928 184.538 22.7651 183.427 23.3785C182.333 23.9919 181.115 24.2986 179.772 24.2986ZM179.772 20.9416C180.8 20.9416 181.62 20.5934 182.234 19.8972C182.864 19.2009 183.178 18.3057 183.178 17.2116C183.178 16.134 182.864 15.2471 182.234 14.5508C181.62 13.838 180.8 13.4815 179.772 13.4815C178.76 13.4815 177.94 13.838 177.31 14.5508C176.68 15.2471 176.365 16.134 176.365 17.2116C176.365 18.3057 176.68 19.2009 177.31 19.8972C177.94 20.5934 178.76 20.9416 179.772 20.9416ZM188.525 24.0002V10.4229H192.007V12.462C192.355 11.6165 192.844 11.0446 193.474 10.7462C194.12 10.4312 194.858 10.2737 195.687 10.2737H197.104V13.5064H195.314C194.402 13.5064 193.665 13.7882 193.101 14.3519C192.537 14.8989 192.255 15.6781 192.255 16.6894V24.0002H188.525Z" fill="white"/>
<path d="M197.244 24V20.27H200.974V24H197.244Z" fill="url(#paint0_linear_1_942)"/>
<defs>
<linearGradient id="paint0_linear_1_942" x1="195.011" y1="20.5372" x2="202.186" y2="20.5302" gradientUnits="userSpaceOnUse">
<stop offset="0.197917" stop-color="#B16CEA"/>
<stop offset="0.557292" stop-color="#FF5E69"/>
<stop offset="0.828125" stop-color="#FF8A56"/>
<stop offset="1" stop-color="#FFA84B"/>
</linearGradient>
</defs>
</svg>
