<svg width="924" height="23" viewBox="0 0 924 23" fill="none" xmlns="http://www.w3.org/2000/svg">
<path d="M167.383 14.125C167.383 13.8594 167.341 13.625 167.258 13.4219C167.18 13.2135 167.039 13.026 166.836 12.8594C166.638 12.6927 166.362 12.5339 166.008 12.3828C165.659 12.2318 165.216 12.0781 164.68 11.9219C164.117 11.7552 163.609 11.5703 163.156 11.3672C162.703 11.1589 162.315 10.9219 161.992 10.6562C161.669 10.3906 161.422 10.0859 161.25 9.74219C161.078 9.39844 160.992 9.00521 160.992 8.5625C160.992 8.11979 161.083 7.71094 161.266 7.33594C161.448 6.96094 161.708 6.63542 162.047 6.35938C162.391 6.07812 162.799 5.85938 163.273 5.70312C163.747 5.54688 164.276 5.46875 164.859 5.46875C165.714 5.46875 166.438 5.63281 167.031 5.96094C167.63 6.28385 168.086 6.70833 168.398 7.23438C168.711 7.75521 168.867 8.3125 168.867 8.90625H167.367C167.367 8.47917 167.276 8.10156 167.094 7.77344C166.911 7.4401 166.635 7.17969 166.266 6.99219C165.896 6.79948 165.427 6.70312 164.859 6.70312C164.323 6.70312 163.88 6.78385 163.531 6.94531C163.182 7.10677 162.922 7.32552 162.75 7.60156C162.583 7.8776 162.5 8.19271 162.5 8.54688C162.5 8.78646 162.549 9.00521 162.648 9.20312C162.753 9.39583 162.911 9.57552 163.125 9.74219C163.344 9.90885 163.62 10.0625 163.953 10.2031C164.292 10.3438 164.695 10.4792 165.164 10.6094C165.81 10.7917 166.367 10.9948 166.836 11.2188C167.305 11.4427 167.69 11.6953 167.992 11.9766C168.299 12.2526 168.526 12.5677 168.672 12.9219C168.823 13.2708 168.898 13.6667 168.898 14.1094C168.898 14.5729 168.805 14.9922 168.617 15.3672C168.43 15.7422 168.161 16.0625 167.812 16.3281C167.464 16.5938 167.044 16.7995 166.555 16.9453C166.07 17.0859 165.529 17.1562 164.93 17.1562C164.404 17.1562 163.885 17.0833 163.375 16.9375C162.87 16.7917 162.409 16.5729 161.992 16.2812C161.581 15.9896 161.25 15.6302 161 15.2031C160.755 14.7708 160.633 14.2708 160.633 13.7031H162.133C162.133 14.0938 162.208 14.4297 162.359 14.7109C162.51 14.987 162.716 15.2161 162.977 15.3984C163.242 15.5807 163.542 15.7161 163.875 15.8047C164.214 15.888 164.565 15.9297 164.93 15.9297C165.456 15.9297 165.901 15.8568 166.266 15.7109C166.63 15.5651 166.906 15.3568 167.094 15.0859C167.286 14.8151 167.383 14.4948 167.383 14.125ZM175.773 15.0469V8.54688H177.227V17H175.844L175.773 15.0469ZM176.047 13.2656L176.648 13.25C176.648 13.8125 176.589 14.3333 176.469 14.8125C176.354 15.2865 176.167 15.6979 175.906 16.0469C175.646 16.3958 175.305 16.6693 174.883 16.8672C174.461 17.0599 173.948 17.1562 173.344 17.1562C172.932 17.1562 172.555 17.0964 172.211 16.9766C171.872 16.8568 171.581 16.6719 171.336 16.4219C171.091 16.1719 170.901 15.8464 170.766 15.4453C170.635 15.0443 170.57 14.5625 170.57 14V8.54688H172.016V14.0156C172.016 14.3958 172.057 14.7109 172.141 14.9609C172.229 15.2057 172.346 15.401 172.492 15.5469C172.643 15.6875 172.81 15.7865 172.992 15.8438C173.18 15.901 173.372 15.9297 173.57 15.9297C174.185 15.9297 174.672 15.8125 175.031 15.5781C175.391 15.3385 175.648 15.0182 175.805 14.6172C175.966 14.2109 176.047 13.7604 176.047 13.2656ZM180.867 10.2266V17H179.414V8.54688H180.789L180.867 10.2266ZM180.57 12.4531L179.898 12.4297C179.904 11.8516 179.979 11.3177 180.125 10.8281C180.271 10.3333 180.487 9.90365 180.773 9.53906C181.06 9.17448 181.417 8.89323 181.844 8.69531C182.271 8.49219 182.766 8.39062 183.328 8.39062C183.724 8.39062 184.089 8.44792 184.422 8.5625C184.755 8.67188 185.044 8.84635 185.289 9.08594C185.534 9.32552 185.724 9.63281 185.859 10.0078C185.995 10.3828 186.062 10.8359 186.062 11.3672V17H184.617V11.4375C184.617 10.9948 184.542 10.6406 184.391 10.375C184.245 10.1094 184.036 9.91667 183.766 9.79688C183.495 9.67188 183.177 9.60938 182.812 9.60938C182.385 9.60938 182.029 9.6849 181.742 9.83594C181.456 9.98698 181.227 10.1953 181.055 10.4609C180.883 10.7266 180.758 11.0312 180.68 11.375C180.607 11.7135 180.57 12.0729 180.57 12.4531ZM186.047 11.6562L185.078 11.9531C185.083 11.4896 185.159 11.0443 185.305 10.6172C185.456 10.1901 185.672 9.8099 185.953 9.47656C186.24 9.14323 186.591 8.88021 187.008 8.6875C187.424 8.48958 187.901 8.39062 188.438 8.39062C188.891 8.39062 189.292 8.45052 189.641 8.57031C189.995 8.6901 190.292 8.875 190.531 9.125C190.776 9.36979 190.961 9.6849 191.086 10.0703C191.211 10.4557 191.273 10.9141 191.273 11.4453V17H189.82V11.4297C189.82 10.9557 189.745 10.5885 189.594 10.3281C189.448 10.0625 189.24 9.8776 188.969 9.77344C188.703 9.66406 188.385 9.60938 188.016 9.60938C187.698 9.60938 187.417 9.66406 187.172 9.77344C186.927 9.88281 186.721 10.0339 186.555 10.2266C186.388 10.4141 186.26 10.6302 186.172 10.875C186.089 11.1198 186.047 11.3802 186.047 11.6562ZM195.031 8.54688V17H193.578V8.54688H195.031ZM193.469 6.30469C193.469 6.07031 193.539 5.8724 193.68 5.71094C193.826 5.54948 194.039 5.46875 194.32 5.46875C194.596 5.46875 194.807 5.54948 194.953 5.71094C195.104 5.8724 195.18 6.07031 195.18 6.30469C195.18 6.52865 195.104 6.72135 194.953 6.88281C194.807 7.03906 194.596 7.11719 194.32 7.11719C194.039 7.11719 193.826 7.03906 193.68 6.88281C193.539 6.72135 193.469 6.52865 193.469 6.30469ZM200.891 8.54688V9.65625H196.32V8.54688H200.891ZM197.867 6.49219H199.312V14.9062C199.312 15.1927 199.357 15.4089 199.445 15.5547C199.534 15.7005 199.648 15.7969 199.789 15.8438C199.93 15.8906 200.081 15.9141 200.242 15.9141C200.362 15.9141 200.487 15.9036 200.617 15.8828C200.753 15.8568 200.854 15.8359 200.922 15.8203L200.93 17C200.815 17.0365 200.664 17.0703 200.477 17.1016C200.294 17.138 200.073 17.1562 199.812 17.1562C199.458 17.1562 199.133 17.0859 198.836 16.9453C198.539 16.8047 198.302 16.5703 198.125 16.2422C197.953 15.9089 197.867 15.4609 197.867 14.8984V6.49219ZM214.203 10.5156V11.7422H208.047V10.5156H214.203ZM208.281 5.625V17H206.773V5.625H208.281ZM215.516 5.625V17H214.016V5.625H215.516ZM221.484 17.1562C220.896 17.1562 220.362 17.0573 219.883 16.8594C219.409 16.6562 219 16.3724 218.656 16.0078C218.318 15.6432 218.057 15.2109 217.875 14.7109C217.693 14.2109 217.602 13.6641 217.602 13.0703V12.7422C217.602 12.0547 217.703 11.4427 217.906 10.9062C218.109 10.3646 218.385 9.90625 218.734 9.53125C219.083 9.15625 219.479 8.8724 219.922 8.67969C220.365 8.48698 220.823 8.39062 221.297 8.39062C221.901 8.39062 222.422 8.49479 222.859 8.70312C223.302 8.91146 223.664 9.20312 223.945 9.57812C224.227 9.94792 224.435 10.3854 224.57 10.8906C224.706 11.3906 224.773 11.9375 224.773 12.5312V13.1797H218.461V12H223.328V11.8906C223.307 11.5156 223.229 11.151 223.094 10.7969C222.964 10.4427 222.755 10.151 222.469 9.92188C222.182 9.69271 221.792 9.57812 221.297 9.57812C220.969 9.57812 220.667 9.64844 220.391 9.78906C220.115 9.92448 219.878 10.1276 219.68 10.3984C219.482 10.6693 219.328 11 219.219 11.3906C219.109 11.7812 219.055 12.2318 219.055 12.7422V13.0703C219.055 13.4714 219.109 13.849 219.219 14.2031C219.333 14.5521 219.497 14.8594 219.711 15.125C219.93 15.3906 220.193 15.599 220.5 15.75C220.812 15.901 221.167 15.9766 221.562 15.9766C222.073 15.9766 222.505 15.8724 222.859 15.6641C223.214 15.4557 223.523 15.1771 223.789 14.8281L224.664 15.5234C224.482 15.7995 224.25 16.0625 223.969 16.3125C223.688 16.5625 223.341 16.7656 222.93 16.9219C222.523 17.0781 222.042 17.1562 221.484 17.1562ZM231.938 8.54688H233.25V16.8203C233.25 17.5651 233.099 18.2005 232.797 18.7266C232.495 19.2526 232.073 19.651 231.531 19.9219C230.995 20.1979 230.375 20.3359 229.672 20.3359C229.38 20.3359 229.036 20.2891 228.641 20.1953C228.25 20.1068 227.865 19.9531 227.484 19.7344C227.109 19.5208 226.794 19.2318 226.539 18.8672L227.297 18.0078C227.651 18.4349 228.021 18.7318 228.406 18.8984C228.797 19.0651 229.182 19.1484 229.562 19.1484C230.021 19.1484 230.417 19.0625 230.75 18.8906C231.083 18.7188 231.341 18.4635 231.523 18.125C231.711 17.7917 231.805 17.3802 231.805 16.8906V10.4062L231.938 8.54688ZM226.117 12.8672V12.7031C226.117 12.0573 226.193 11.4714 226.344 10.9453C226.5 10.4141 226.721 9.95833 227.008 9.57812C227.299 9.19792 227.651 8.90625 228.062 8.70312C228.474 8.49479 228.938 8.39062 229.453 8.39062C229.984 8.39062 230.448 8.48438 230.844 8.67188C231.245 8.85417 231.583 9.1224 231.859 9.47656C232.141 9.82552 232.362 10.2474 232.523 10.7422C232.685 11.237 232.797 11.7969 232.859 12.4219V13.1406C232.802 13.7604 232.69 14.3177 232.523 14.8125C232.362 15.3073 232.141 15.7292 231.859 16.0781C231.583 16.4271 231.245 16.6953 230.844 16.8828C230.443 17.0651 229.974 17.1562 229.438 17.1562C228.932 17.1562 228.474 17.0495 228.062 16.8359C227.656 16.6224 227.307 16.3229 227.016 15.9375C226.724 15.5521 226.5 15.099 226.344 14.5781C226.193 14.0521 226.117 13.4818 226.117 12.8672ZM227.562 12.7031V12.8672C227.562 13.2891 227.604 13.6849 227.688 14.0547C227.776 14.4245 227.909 14.75 228.086 15.0312C228.268 15.3125 228.5 15.5339 228.781 15.6953C229.062 15.8516 229.398 15.9297 229.789 15.9297C230.268 15.9297 230.664 15.8281 230.977 15.625C231.289 15.4219 231.536 15.1536 231.719 14.8203C231.906 14.487 232.052 14.125 232.156 13.7344V11.8516C232.099 11.5651 232.01 11.2891 231.891 11.0234C231.776 10.7526 231.625 10.513 231.438 10.3047C231.255 10.0911 231.029 9.92188 230.758 9.79688C230.487 9.67188 230.169 9.60938 229.805 9.60938C229.409 9.60938 229.068 9.69271 228.781 9.85938C228.5 10.0208 228.268 10.2448 228.086 10.5312C227.909 10.8125 227.776 11.1406 227.688 11.5156C227.604 11.8854 227.562 12.2812 227.562 12.7031ZM240.773 15.3594V5H242.227V17H240.898L240.773 15.3594ZM235.086 12.8672V12.7031C235.086 12.0573 235.164 11.4714 235.32 10.9453C235.482 10.4141 235.708 9.95833 236 9.57812C236.297 9.19792 236.648 8.90625 237.055 8.70312C237.466 8.49479 237.924 8.39062 238.43 8.39062C238.961 8.39062 239.424 8.48438 239.82 8.67188C240.221 8.85417 240.56 9.1224 240.836 9.47656C241.117 9.82552 241.339 10.2474 241.5 10.7422C241.661 11.237 241.773 11.7969 241.836 12.4219V13.1406C241.779 13.7604 241.667 14.3177 241.5 14.8125C241.339 15.3073 241.117 15.7292 240.836 16.0781C240.56 16.4271 240.221 16.6953 239.82 16.8828C239.419 17.0651 238.951 17.1562 238.414 17.1562C237.919 17.1562 237.466 17.0495 237.055 16.8359C236.648 16.6224 236.297 16.3229 236 15.9375C235.708 15.5521 235.482 15.099 235.32 14.5781C235.164 14.0521 235.086 13.4818 235.086 12.8672ZM236.539 12.7031V12.8672C236.539 13.2891 236.581 13.6849 236.664 14.0547C236.753 14.4245 236.888 14.75 237.07 15.0312C237.253 15.3125 237.484 15.5339 237.766 15.6953C238.047 15.8516 238.383 15.9297 238.773 15.9297C239.253 15.9297 239.646 15.8281 239.953 15.625C240.266 15.4219 240.516 15.1536 240.703 14.8203C240.891 14.487 241.036 14.125 241.141 13.7344V11.8516C241.078 11.5651 240.987 11.2891 240.867 11.0234C240.753 10.7526 240.602 10.513 240.414 10.3047C240.232 10.0911 240.005 9.92188 239.734 9.79688C239.469 9.67188 239.154 9.60938 238.789 9.60938C238.393 9.60938 238.052 9.69271 237.766 9.85938C237.484 10.0208 237.253 10.2448 237.07 10.5312C236.888 10.8125 236.753 11.1406 236.664 11.5156C236.581 11.8854 236.539 12.2812 236.539 12.7031ZM247.984 17.1562C247.396 17.1562 246.862 17.0573 246.383 16.8594C245.909 16.6562 245.5 16.3724 245.156 16.0078C244.818 15.6432 244.557 15.2109 244.375 14.7109C244.193 14.2109 244.102 13.6641 244.102 13.0703V12.7422C244.102 12.0547 244.203 11.4427 244.406 10.9062C244.609 10.3646 244.885 9.90625 245.234 9.53125C245.583 9.15625 245.979 8.8724 246.422 8.67969C246.865 8.48698 247.323 8.39062 247.797 8.39062C248.401 8.39062 248.922 8.49479 249.359 8.70312C249.802 8.91146 250.164 9.20312 250.445 9.57812C250.727 9.94792 250.935 10.3854 251.07 10.8906C251.206 11.3906 251.273 11.9375 251.273 12.5312V13.1797H244.961V12H249.828V11.8906C249.807 11.5156 249.729 11.151 249.594 10.7969C249.464 10.4427 249.255 10.151 248.969 9.92188C248.682 9.69271 248.292 9.57812 247.797 9.57812C247.469 9.57812 247.167 9.64844 246.891 9.78906C246.615 9.92448 246.378 10.1276 246.18 10.3984C245.982 10.6693 245.828 11 245.719 11.3906C245.609 11.7812 245.555 12.2318 245.555 12.7422V13.0703C245.555 13.4714 245.609 13.849 245.719 14.2031C245.833 14.5521 245.997 14.8594 246.211 15.125C246.43 15.3906 246.693 15.599 247 15.75C247.312 15.901 247.667 15.9766 248.062 15.9766C248.573 15.9766 249.005 15.8724 249.359 15.6641C249.714 15.4557 250.023 15.1771 250.289 14.8281L251.164 15.5234C250.982 15.7995 250.75 16.0625 250.469 16.3125C250.188 16.5625 249.841 16.7656 249.43 16.9219C249.023 17.0781 248.542 17.1562 247.984 17.1562Z" fill="#8A95AD"/>
<path d="M369.312 13.5625L371.57 5.625H372.664L372.031 8.71094L369.602 17H368.516L369.312 13.5625ZM366.977 5.625L368.773 13.4062L369.312 17H368.234L365.477 5.625H366.977ZM375.586 13.3984L377.344 5.625H378.852L376.102 17H375.023L375.586 13.3984ZM372.828 5.625L375.023 13.5625L375.82 17H374.734L372.391 8.71094L371.75 5.625H372.828ZM383.562 17.1562C382.974 17.1562 382.44 17.0573 381.961 16.8594C381.487 16.6562 381.078 16.3724 380.734 16.0078C380.396 15.6432 380.135 15.2109 379.953 14.7109C379.771 14.2109 379.68 13.6641 379.68 13.0703V12.7422C379.68 12.0547 379.781 11.4427 379.984 10.9062C380.188 10.3646 380.464 9.90625 380.812 9.53125C381.161 9.15625 381.557 8.8724 382 8.67969C382.443 8.48698 382.901 8.39062 383.375 8.39062C383.979 8.39062 384.5 8.49479 384.938 8.70312C385.38 8.91146 385.742 9.20312 386.023 9.57812C386.305 9.94792 386.513 10.3854 386.648 10.8906C386.784 11.3906 386.852 11.9375 386.852 12.5312V13.1797H380.539V12H385.406V11.8906C385.385 11.5156 385.307 11.151 385.172 10.7969C385.042 10.4427 384.833 10.151 384.547 9.92188C384.26 9.69271 383.87 9.57812 383.375 9.57812C383.047 9.57812 382.745 9.64844 382.469 9.78906C382.193 9.92448 381.956 10.1276 381.758 10.3984C381.56 10.6693 381.406 11 381.297 11.3906C381.188 11.7812 381.133 12.2318 381.133 12.7422V13.0703C381.133 13.4714 381.188 13.849 381.297 14.2031C381.411 14.5521 381.576 14.8594 381.789 15.125C382.008 15.3906 382.271 15.599 382.578 15.75C382.891 15.901 383.245 15.9766 383.641 15.9766C384.151 15.9766 384.583 15.8724 384.938 15.6641C385.292 15.4557 385.602 15.1771 385.867 14.8281L386.742 15.5234C386.56 15.7995 386.328 16.0625 386.047 16.3125C385.766 16.5625 385.419 16.7656 385.008 16.9219C384.602 17.0781 384.12 17.1562 383.562 17.1562ZM388.531 5H389.984V15.3594L389.859 17H388.531V5ZM395.695 12.7031V12.8672C395.695 13.4818 395.622 14.0521 395.477 14.5781C395.331 15.099 395.117 15.5521 394.836 15.9375C394.555 16.3229 394.211 16.6224 393.805 16.8359C393.398 17.0495 392.932 17.1562 392.406 17.1562C391.87 17.1562 391.398 17.0651 390.992 16.8828C390.591 16.6953 390.253 16.4271 389.977 16.0781C389.701 15.7292 389.479 15.3073 389.312 14.8125C389.151 14.3177 389.039 13.7604 388.977 13.1406V12.4219C389.039 11.7969 389.151 11.237 389.312 10.7422C389.479 10.2474 389.701 9.82552 389.977 9.47656C390.253 9.1224 390.591 8.85417 390.992 8.67188C391.393 8.48438 391.859 8.39062 392.391 8.39062C392.922 8.39062 393.393 8.49479 393.805 8.70312C394.216 8.90625 394.56 9.19792 394.836 9.57812C395.117 9.95833 395.331 10.4141 395.477 10.9453C395.622 11.4714 395.695 12.0573 395.695 12.7031ZM394.242 12.8672V12.7031C394.242 12.2812 394.203 11.8854 394.125 11.5156C394.047 11.1406 393.922 10.8125 393.75 10.5312C393.578 10.2448 393.352 10.0208 393.07 9.85938C392.789 9.69271 392.443 9.60938 392.031 9.60938C391.667 9.60938 391.349 9.67188 391.078 9.79688C390.812 9.92188 390.586 10.0911 390.398 10.3047C390.211 10.513 390.057 10.7526 389.938 11.0234C389.823 11.2891 389.737 11.5651 389.68 11.8516V13.7344C389.763 14.099 389.898 14.4505 390.086 14.7891C390.279 15.1224 390.534 15.3958 390.852 15.6094C391.174 15.8229 391.573 15.9297 392.047 15.9297C392.438 15.9297 392.771 15.8516 393.047 15.6953C393.328 15.5339 393.555 15.3125 393.727 15.0312C393.904 14.75 394.034 14.4245 394.117 14.0547C394.201 13.6849 394.242 13.2891 394.242 12.8672ZM399.68 17H398.234V7.65625C398.234 7.04688 398.346 6.53385 398.57 6.11719C398.799 5.69531 399.128 5.3776 399.555 5.16406C399.987 4.94531 400.51 4.83594 401.125 4.83594C401.354 4.83594 401.641 4.85938 401.984 4.90625C402.333 4.95312 402.703 5.01302 403.094 5.08594C403.49 5.15885 403.875 5.23438 404.25 5.3125L403.578 6.35938C403.083 6.26562 402.638 6.19531 402.242 6.14844C401.846 6.09635 401.51 6.07031 401.234 6.07031C400.896 6.07031 400.609 6.13281 400.375 6.25781C400.146 6.3776 399.971 6.55469 399.852 6.78906C399.737 7.02344 399.68 7.3125 399.68 7.65625V17ZM402.805 17V5.3125H404.25V17H402.805ZM401.477 8.54688V9.65625H396.898V8.54688H401.477ZM406.234 12.8672V12.6875C406.234 12.0781 406.323 11.513 406.5 10.9922C406.677 10.4661 406.932 10.0104 407.266 9.625C407.599 9.23438 408.003 8.93229 408.477 8.71875C408.951 8.5 409.482 8.39062 410.07 8.39062C410.664 8.39062 411.198 8.5 411.672 8.71875C412.151 8.93229 412.557 9.23438 412.891 9.625C413.229 10.0104 413.487 10.4661 413.664 10.9922C413.841 11.513 413.93 12.0781 413.93 12.6875V12.8672C413.93 13.4766 413.841 14.0417 413.664 14.5625C413.487 15.0833 413.229 15.5391 412.891 15.9297C412.557 16.3151 412.154 16.6172 411.68 16.8359C411.211 17.0495 410.68 17.1562 410.086 17.1562C409.492 17.1562 408.958 17.0495 408.484 16.8359C408.01 16.6172 407.604 16.3151 407.266 15.9297C406.932 15.5391 406.677 15.0833 406.5 14.5625C406.323 14.0417 406.234 13.4766 406.234 12.8672ZM407.68 12.6875V12.8672C407.68 13.2891 407.729 13.6875 407.828 14.0625C407.927 14.4323 408.076 14.7604 408.273 15.0469C408.477 15.3333 408.729 15.5599 409.031 15.7266C409.333 15.888 409.685 15.9688 410.086 15.9688C410.482 15.9688 410.828 15.888 411.125 15.7266C411.427 15.5599 411.677 15.3333 411.875 15.0469C412.073 14.7604 412.221 14.4323 412.32 14.0625C412.424 13.6875 412.477 13.2891 412.477 12.8672V12.6875C412.477 12.2708 412.424 11.8776 412.32 11.5078C412.221 11.1328 412.07 10.8021 411.867 10.5156C411.669 10.224 411.419 9.99479 411.117 9.82812C410.82 9.66146 410.471 9.57812 410.07 9.57812C409.674 9.57812 409.326 9.66146 409.023 9.82812C408.727 9.99479 408.477 10.224 408.273 10.5156C408.076 10.8021 407.927 11.1328 407.828 11.5078C407.729 11.8776 407.68 12.2708 407.68 12.6875ZM417.883 15.5L420.055 8.54688H421.008L420.82 9.92969L418.609 17H417.68L417.883 15.5ZM416.422 8.54688L418.273 15.5781L418.406 17H417.43L414.977 8.54688H416.422ZM423.086 15.5234L424.852 8.54688H426.289L423.836 17H422.867L423.086 15.5234ZM421.219 8.54688L423.344 15.3828L423.586 17H422.664L420.391 9.91406L420.203 8.54688H421.219Z" fill="#8A95AD"/>
<path d="M454.938 5.625V17H453.43V5.625H454.938ZM458.898 10.2266V17H457.445V8.54688H458.82L458.898 10.2266ZM458.602 12.4531L457.93 12.4297C457.935 11.8516 458.01 11.3177 458.156 10.8281C458.302 10.3333 458.518 9.90365 458.805 9.53906C459.091 9.17448 459.448 8.89323 459.875 8.69531C460.302 8.49219 460.797 8.39062 461.359 8.39062C461.755 8.39062 462.12 8.44792 462.453 8.5625C462.786 8.67188 463.076 8.84635 463.32 9.08594C463.565 9.32552 463.755 9.63281 463.891 10.0078C464.026 10.3828 464.094 10.8359 464.094 11.3672V17H462.648V11.4375C462.648 10.9948 462.573 10.6406 462.422 10.375C462.276 10.1094 462.068 9.91667 461.797 9.79688C461.526 9.67188 461.208 9.60938 460.844 9.60938C460.417 9.60938 460.06 9.6849 459.773 9.83594C459.487 9.98698 459.258 10.1953 459.086 10.4609C458.914 10.7266 458.789 11.0312 458.711 11.375C458.638 11.7135 458.602 12.0729 458.602 12.4531ZM464.078 11.6562L463.109 11.9531C463.115 11.4896 463.19 11.0443 463.336 10.6172C463.487 10.1901 463.703 9.8099 463.984 9.47656C464.271 9.14323 464.622 8.88021 465.039 8.6875C465.456 8.48958 465.932 8.39062 466.469 8.39062C466.922 8.39062 467.323 8.45052 467.672 8.57031C468.026 8.6901 468.323 8.875 468.562 9.125C468.807 9.36979 468.992 9.6849 469.117 10.0703C469.242 10.4557 469.305 10.9141 469.305 11.4453V17H467.852V11.4297C467.852 10.9557 467.776 10.5885 467.625 10.3281C467.479 10.0625 467.271 9.8776 467 9.77344C466.734 9.66406 466.417 9.60938 466.047 9.60938C465.729 9.60938 465.448 9.66406 465.203 9.77344C464.958 9.88281 464.753 10.0339 464.586 10.2266C464.419 10.4141 464.292 10.6302 464.203 10.875C464.12 11.1198 464.078 11.3802 464.078 11.6562ZM476.477 15.5547V11.2031C476.477 10.8698 476.409 10.5807 476.273 10.3359C476.143 10.0859 475.945 9.89323 475.68 9.75781C475.414 9.6224 475.086 9.55469 474.695 9.55469C474.331 9.55469 474.01 9.61719 473.734 9.74219C473.464 9.86719 473.25 10.0312 473.094 10.2344C472.943 10.4375 472.867 10.6562 472.867 10.8906H471.422C471.422 10.5885 471.5 10.2891 471.656 9.99219C471.812 9.69531 472.036 9.42708 472.328 9.1875C472.625 8.94271 472.979 8.75 473.391 8.60938C473.807 8.46354 474.271 8.39062 474.781 8.39062C475.396 8.39062 475.938 8.49479 476.406 8.70312C476.88 8.91146 477.25 9.22656 477.516 9.64844C477.786 10.0651 477.922 10.5885 477.922 11.2188V15.1562C477.922 15.4375 477.945 15.737 477.992 16.0547C478.044 16.3724 478.12 16.6458 478.219 16.875V17H476.711C476.638 16.8333 476.581 16.612 476.539 16.3359C476.497 16.0547 476.477 15.7943 476.477 15.5547ZM476.727 11.875L476.742 12.8906H475.281C474.87 12.8906 474.503 12.9245 474.18 12.9922C473.857 13.0547 473.586 13.151 473.367 13.2812C473.148 13.4115 472.982 13.5755 472.867 13.7734C472.753 13.9661 472.695 14.1927 472.695 14.4531C472.695 14.7188 472.755 14.9609 472.875 15.1797C472.995 15.3984 473.174 15.5729 473.414 15.7031C473.659 15.8281 473.958 15.8906 474.312 15.8906C474.755 15.8906 475.146 15.7969 475.484 15.6094C475.823 15.4219 476.091 15.1927 476.289 14.9219C476.492 14.651 476.602 14.388 476.617 14.1328L477.234 14.8281C477.198 15.0469 477.099 15.2891 476.938 15.5547C476.776 15.8203 476.56 16.0755 476.289 16.3203C476.023 16.5599 475.706 16.7604 475.336 16.9219C474.971 17.0781 474.56 17.1562 474.102 17.1562C473.529 17.1562 473.026 17.0443 472.594 16.8203C472.167 16.5964 471.833 16.2969 471.594 15.9219C471.359 15.5417 471.242 15.1172 471.242 14.6484C471.242 14.1953 471.331 13.7969 471.508 13.4531C471.685 13.1042 471.94 12.8151 472.273 12.5859C472.607 12.3516 473.008 12.1745 473.477 12.0547C473.945 11.9349 474.469 11.875 475.047 11.875H476.727ZM485.672 8.54688H486.984V16.8203C486.984 17.5651 486.833 18.2005 486.531 18.7266C486.229 19.2526 485.807 19.651 485.266 19.9219C484.729 20.1979 484.109 20.3359 483.406 20.3359C483.115 20.3359 482.771 20.2891 482.375 20.1953C481.984 20.1068 481.599 19.9531 481.219 19.7344C480.844 19.5208 480.529 19.2318 480.273 18.8672L481.031 18.0078C481.385 18.4349 481.755 18.7318 482.141 18.8984C482.531 19.0651 482.917 19.1484 483.297 19.1484C483.755 19.1484 484.151 19.0625 484.484 18.8906C484.818 18.7188 485.076 18.4635 485.258 18.125C485.445 17.7917 485.539 17.3802 485.539 16.8906V10.4062L485.672 8.54688ZM479.852 12.8672V12.7031C479.852 12.0573 479.927 11.4714 480.078 10.9453C480.234 10.4141 480.456 9.95833 480.742 9.57812C481.034 9.19792 481.385 8.90625 481.797 8.70312C482.208 8.49479 482.672 8.39062 483.188 8.39062C483.719 8.39062 484.182 8.48438 484.578 8.67188C484.979 8.85417 485.318 9.1224 485.594 9.47656C485.875 9.82552 486.096 10.2474 486.258 10.7422C486.419 11.237 486.531 11.7969 486.594 12.4219V13.1406C486.536 13.7604 486.424 14.3177 486.258 14.8125C486.096 15.3073 485.875 15.7292 485.594 16.0781C485.318 16.4271 484.979 16.6953 484.578 16.8828C484.177 17.0651 483.708 17.1562 483.172 17.1562C482.667 17.1562 482.208 17.0495 481.797 16.8359C481.391 16.6224 481.042 16.3229 480.75 15.9375C480.458 15.5521 480.234 15.099 480.078 14.5781C479.927 14.0521 479.852 13.4818 479.852 12.8672ZM481.297 12.7031V12.8672C481.297 13.2891 481.339 13.6849 481.422 14.0547C481.51 14.4245 481.643 14.75 481.82 15.0312C482.003 15.3125 482.234 15.5339 482.516 15.6953C482.797 15.8516 483.133 15.9297 483.523 15.9297C484.003 15.9297 484.398 15.8281 484.711 15.625C485.023 15.4219 485.271 15.1536 485.453 14.8203C485.641 14.487 485.786 14.125 485.891 13.7344V11.8516C485.833 11.5651 485.745 11.2891 485.625 11.0234C485.51 10.7526 485.359 10.513 485.172 10.3047C484.99 10.0911 484.763 9.92188 484.492 9.79688C484.221 9.67188 483.904 9.60938 483.539 9.60938C483.143 9.60938 482.802 9.69271 482.516 9.85938C482.234 10.0208 482.003 10.2448 481.82 10.5312C481.643 10.8125 481.51 11.1406 481.422 11.5156C481.339 11.8854 481.297 12.2812 481.297 12.7031ZM492.688 17.1562C492.099 17.1562 491.565 17.0573 491.086 16.8594C490.612 16.6562 490.203 16.3724 489.859 16.0078C489.521 15.6432 489.26 15.2109 489.078 14.7109C488.896 14.2109 488.805 13.6641 488.805 13.0703V12.7422C488.805 12.0547 488.906 11.4427 489.109 10.9062C489.312 10.3646 489.589 9.90625 489.938 9.53125C490.286 9.15625 490.682 8.8724 491.125 8.67969C491.568 8.48698 492.026 8.39062 492.5 8.39062C493.104 8.39062 493.625 8.49479 494.062 8.70312C494.505 8.91146 494.867 9.20312 495.148 9.57812C495.43 9.94792 495.638 10.3854 495.773 10.8906C495.909 11.3906 495.977 11.9375 495.977 12.5312V13.1797H489.664V12H494.531V11.8906C494.51 11.5156 494.432 11.151 494.297 10.7969C494.167 10.4427 493.958 10.151 493.672 9.92188C493.385 9.69271 492.995 9.57812 492.5 9.57812C492.172 9.57812 491.87 9.64844 491.594 9.78906C491.318 9.92448 491.081 10.1276 490.883 10.3984C490.685 10.6693 490.531 11 490.422 11.3906C490.312 11.7812 490.258 12.2318 490.258 12.7422V13.0703C490.258 13.4714 490.312 13.849 490.422 14.2031C490.536 14.5521 490.701 14.8594 490.914 15.125C491.133 15.3906 491.396 15.599 491.703 15.75C492.016 15.901 492.37 15.9766 492.766 15.9766C493.276 15.9766 493.708 15.8724 494.062 15.6641C494.417 15.4557 494.727 15.1771 494.992 14.8281L495.867 15.5234C495.685 15.7995 495.453 16.0625 495.172 16.3125C494.891 16.5625 494.544 16.7656 494.133 16.9219C493.727 17.0781 493.245 17.1562 492.688 17.1562ZM508.75 15.7734V17H503.062V15.7734H508.75ZM503.359 5.625V17H501.852V5.625H503.359ZM511.828 8.54688V17H510.375V8.54688H511.828ZM510.266 6.30469C510.266 6.07031 510.336 5.8724 510.477 5.71094C510.622 5.54948 510.836 5.46875 511.117 5.46875C511.393 5.46875 511.604 5.54948 511.75 5.71094C511.901 5.8724 511.977 6.07031 511.977 6.30469C511.977 6.52865 511.901 6.72135 511.75 6.88281C511.604 7.03906 511.393 7.11719 511.117 7.11719C510.836 7.11719 510.622 7.03906 510.477 6.88281C510.336 6.72135 510.266 6.52865 510.266 6.30469ZM517.531 15.9688C517.875 15.9688 518.193 15.8984 518.484 15.7578C518.776 15.6172 519.016 15.4245 519.203 15.1797C519.391 14.9297 519.497 14.6458 519.523 14.3281H520.898C520.872 14.8281 520.703 15.2943 520.391 15.7266C520.083 16.1536 519.68 16.5 519.18 16.7656C518.68 17.026 518.13 17.1562 517.531 17.1562C516.896 17.1562 516.341 17.0443 515.867 16.8203C515.398 16.5964 515.008 16.2891 514.695 15.8984C514.388 15.5078 514.156 15.0599 514 14.5547C513.849 14.0443 513.773 13.5052 513.773 12.9375V12.6094C513.773 12.0417 513.849 11.5052 514 11C514.156 10.4896 514.388 10.0391 514.695 9.64844C515.008 9.25781 515.398 8.95052 515.867 8.72656C516.341 8.5026 516.896 8.39062 517.531 8.39062C518.193 8.39062 518.771 8.52604 519.266 8.79688C519.76 9.0625 520.148 9.42708 520.43 9.89062C520.716 10.349 520.872 10.8698 520.898 11.4531H519.523C519.497 11.1042 519.398 10.7891 519.227 10.5078C519.06 10.2266 518.831 10.0026 518.539 9.83594C518.253 9.66406 517.917 9.57812 517.531 9.57812C517.089 9.57812 516.716 9.66667 516.414 9.84375C516.117 10.0156 515.88 10.25 515.703 10.5469C515.531 10.8385 515.406 11.1641 515.328 11.5234C515.255 11.8776 515.219 12.2396 515.219 12.6094V12.9375C515.219 13.3073 515.255 13.6719 515.328 14.0312C515.401 14.3906 515.523 14.7161 515.695 15.0078C515.872 15.2995 516.109 15.5339 516.406 15.7109C516.708 15.8828 517.083 15.9688 517.531 15.9688ZM526.031 17.1562C525.443 17.1562 524.909 17.0573 524.43 16.8594C523.956 16.6562 523.547 16.3724 523.203 16.0078C522.865 15.6432 522.604 15.2109 522.422 14.7109C522.24 14.2109 522.148 13.6641 522.148 13.0703V12.7422C522.148 12.0547 522.25 11.4427 522.453 10.9062C522.656 10.3646 522.932 9.90625 523.281 9.53125C523.63 9.15625 524.026 8.8724 524.469 8.67969C524.911 8.48698 525.37 8.39062 525.844 8.39062C526.448 8.39062 526.969 8.49479 527.406 8.70312C527.849 8.91146 528.211 9.20312 528.492 9.57812C528.773 9.94792 528.982 10.3854 529.117 10.8906C529.253 11.3906 529.32 11.9375 529.32 12.5312V13.1797H523.008V12H527.875V11.8906C527.854 11.5156 527.776 11.151 527.641 10.7969C527.51 10.4427 527.302 10.151 527.016 9.92188C526.729 9.69271 526.339 9.57812 525.844 9.57812C525.516 9.57812 525.214 9.64844 524.938 9.78906C524.661 9.92448 524.424 10.1276 524.227 10.3984C524.029 10.6693 523.875 11 523.766 11.3906C523.656 11.7812 523.602 12.2318 523.602 12.7422V13.0703C523.602 13.4714 523.656 13.849 523.766 14.2031C523.88 14.5521 524.044 14.8594 524.258 15.125C524.477 15.3906 524.74 15.599 525.047 15.75C525.359 15.901 525.714 15.9766 526.109 15.9766C526.62 15.9766 527.052 15.8724 527.406 15.6641C527.76 15.4557 528.07 15.1771 528.336 14.8281L529.211 15.5234C529.029 15.7995 528.797 16.0625 528.516 16.3125C528.234 16.5625 527.888 16.7656 527.477 16.9219C527.07 17.0781 526.589 17.1562 526.031 17.1562ZM532.453 10.3516V17H531.008V8.54688H532.375L532.453 10.3516ZM532.109 12.4531L531.508 12.4297C531.513 11.8516 531.599 11.3177 531.766 10.8281C531.932 10.3333 532.167 9.90365 532.469 9.53906C532.771 9.17448 533.13 8.89323 533.547 8.69531C533.969 8.49219 534.435 8.39062 534.945 8.39062C535.362 8.39062 535.737 8.44792 536.07 8.5625C536.404 8.67188 536.688 8.84896 536.922 9.09375C537.161 9.33854 537.344 9.65625 537.469 10.0469C537.594 10.4323 537.656 10.9036 537.656 11.4609V17H536.203V11.4453C536.203 11.0026 536.138 10.6484 536.008 10.3828C535.878 10.112 535.688 9.91667 535.438 9.79688C535.188 9.67188 534.88 9.60938 534.516 9.60938C534.156 9.60938 533.828 9.6849 533.531 9.83594C533.24 9.98698 532.987 10.1953 532.773 10.4609C532.565 10.7266 532.401 11.0312 532.281 11.375C532.167 11.7135 532.109 12.0729 532.109 12.4531ZM544.773 14.7578C544.773 14.5495 544.727 14.3568 544.633 14.1797C544.544 13.9974 544.359 13.8333 544.078 13.6875C543.802 13.5365 543.385 13.4062 542.828 13.2969C542.359 13.1979 541.935 13.0807 541.555 12.9453C541.18 12.8099 540.859 12.6458 540.594 12.4531C540.333 12.2604 540.133 12.0339 539.992 11.7734C539.852 11.513 539.781 11.2083 539.781 10.8594C539.781 10.526 539.854 10.2109 540 9.91406C540.151 9.61719 540.362 9.35417 540.633 9.125C540.909 8.89583 541.24 8.71615 541.625 8.58594C542.01 8.45573 542.44 8.39062 542.914 8.39062C543.591 8.39062 544.169 8.51042 544.648 8.75C545.128 8.98958 545.495 9.3099 545.75 9.71094C546.005 10.1068 546.133 10.5469 546.133 11.0312H544.688C544.688 10.7969 544.617 10.5703 544.477 10.3516C544.341 10.1276 544.141 9.94271 543.875 9.79688C543.615 9.65104 543.294 9.57812 542.914 9.57812C542.513 9.57812 542.188 9.64062 541.938 9.76562C541.693 9.88542 541.513 10.0391 541.398 10.2266C541.289 10.4141 541.234 10.612 541.234 10.8203C541.234 10.9766 541.26 11.1172 541.312 11.2422C541.37 11.362 541.469 11.474 541.609 11.5781C541.75 11.6771 541.948 11.7708 542.203 11.8594C542.458 11.9479 542.784 12.0365 543.18 12.125C543.872 12.2812 544.443 12.4688 544.891 12.6875C545.339 12.9062 545.672 13.1745 545.891 13.4922C546.109 13.8099 546.219 14.1953 546.219 14.6484C546.219 15.0182 546.141 15.3568 545.984 15.6641C545.833 15.9714 545.612 16.237 545.32 16.4609C545.034 16.6797 544.69 16.8516 544.289 16.9766C543.893 17.0964 543.448 17.1562 542.953 17.1562C542.208 17.1562 541.578 17.0234 541.062 16.7578C540.547 16.4922 540.156 16.1484 539.891 15.7266C539.625 15.3047 539.492 14.8594 539.492 14.3906H540.945C540.966 14.7865 541.081 15.1016 541.289 15.3359C541.497 15.5651 541.753 15.7292 542.055 15.8281C542.357 15.9219 542.656 15.9688 542.953 15.9688C543.349 15.9688 543.68 15.9167 543.945 15.8125C544.216 15.7083 544.422 15.5651 544.562 15.3828C544.703 15.2005 544.773 14.9922 544.773 14.7578ZM551.625 17.1562C551.036 17.1562 550.503 17.0573 550.023 16.8594C549.549 16.6562 549.141 16.3724 548.797 16.0078C548.458 15.6432 548.198 15.2109 548.016 14.7109C547.833 14.2109 547.742 13.6641 547.742 13.0703V12.7422C547.742 12.0547 547.844 11.4427 548.047 10.9062C548.25 10.3646 548.526 9.90625 548.875 9.53125C549.224 9.15625 549.62 8.8724 550.062 8.67969C550.505 8.48698 550.964 8.39062 551.438 8.39062C552.042 8.39062 552.562 8.49479 553 8.70312C553.443 8.91146 553.805 9.20312 554.086 9.57812C554.367 9.94792 554.576 10.3854 554.711 10.8906C554.846 11.3906 554.914 11.9375 554.914 12.5312V13.1797H548.602V12H553.469V11.8906C553.448 11.5156 553.37 11.151 553.234 10.7969C553.104 10.4427 552.896 10.151 552.609 9.92188C552.323 9.69271 551.932 9.57812 551.438 9.57812C551.109 9.57812 550.807 9.64844 550.531 9.78906C550.255 9.92448 550.018 10.1276 549.82 10.3984C549.622 10.6693 549.469 11 549.359 11.3906C549.25 11.7812 549.195 12.2318 549.195 12.7422V13.0703C549.195 13.4714 549.25 13.849 549.359 14.2031C549.474 14.5521 549.638 14.8594 549.852 15.125C550.07 15.3906 550.333 15.599 550.641 15.75C550.953 15.901 551.307 15.9766 551.703 15.9766C552.214 15.9766 552.646 15.8724 553 15.6641C553.354 15.4557 553.664 15.1771 553.93 14.8281L554.805 15.5234C554.622 15.7995 554.391 16.0625 554.109 16.3125C553.828 16.5625 553.482 16.7656 553.07 16.9219C552.664 17.0781 552.182 17.1562 551.625 17.1562ZM562.406 5.625V17H560.898V5.625H562.406ZM566.375 10.3516V17H564.93V8.54688H566.297L566.375 10.3516ZM566.031 12.4531L565.43 12.4297C565.435 11.8516 565.521 11.3177 565.688 10.8281C565.854 10.3333 566.089 9.90365 566.391 9.53906C566.693 9.17448 567.052 8.89323 567.469 8.69531C567.891 8.49219 568.357 8.39062 568.867 8.39062C569.284 8.39062 569.659 8.44792 569.992 8.5625C570.326 8.67188 570.609 8.84896 570.844 9.09375C571.083 9.33854 571.266 9.65625 571.391 10.0469C571.516 10.4323 571.578 10.9036 571.578 11.4609V17H570.125V11.4453C570.125 11.0026 570.06 10.6484 569.93 10.3828C569.799 10.112 569.609 9.91667 569.359 9.79688C569.109 9.67188 568.802 9.60938 568.438 9.60938C568.078 9.60938 567.75 9.6849 567.453 9.83594C567.161 9.98698 566.909 10.1953 566.695 10.4609C566.487 10.7266 566.323 11.0312 566.203 11.375C566.089 11.7135 566.031 12.0729 566.031 12.4531ZM575.93 17H574.484V7.65625C574.484 7.04688 574.594 6.53385 574.812 6.11719C575.036 5.69531 575.357 5.3776 575.773 5.16406C576.19 4.94531 576.685 4.83594 577.258 4.83594C577.424 4.83594 577.591 4.84635 577.758 4.86719C577.93 4.88802 578.096 4.91927 578.258 4.96094L578.18 6.14062C578.07 6.11458 577.945 6.09635 577.805 6.08594C577.669 6.07552 577.534 6.07031 577.398 6.07031C577.091 6.07031 576.826 6.13281 576.602 6.25781C576.383 6.3776 576.216 6.55469 576.102 6.78906C575.987 7.02344 575.93 7.3125 575.93 7.65625V17ZM577.727 8.54688V9.65625H573.148V8.54688H577.727ZM578.953 12.8672V12.6875C578.953 12.0781 579.042 11.513 579.219 10.9922C579.396 10.4661 579.651 10.0104 579.984 9.625C580.318 9.23438 580.721 8.93229 581.195 8.71875C581.669 8.5 582.201 8.39062 582.789 8.39062C583.383 8.39062 583.917 8.5 584.391 8.71875C584.87 8.93229 585.276 9.23438 585.609 9.625C585.948 10.0104 586.206 10.4661 586.383 10.9922C586.56 11.513 586.648 12.0781 586.648 12.6875V12.8672C586.648 13.4766 586.56 14.0417 586.383 14.5625C586.206 15.0833 585.948 15.5391 585.609 15.9297C585.276 16.3151 584.872 16.6172 584.398 16.8359C583.93 17.0495 583.398 17.1562 582.805 17.1562C582.211 17.1562 581.677 17.0495 581.203 16.8359C580.729 16.6172 580.323 16.3151 579.984 15.9297C579.651 15.5391 579.396 15.0833 579.219 14.5625C579.042 14.0417 578.953 13.4766 578.953 12.8672ZM580.398 12.6875V12.8672C580.398 13.2891 580.448 13.6875 580.547 14.0625C580.646 14.4323 580.794 14.7604 580.992 15.0469C581.195 15.3333 581.448 15.5599 581.75 15.7266C582.052 15.888 582.404 15.9688 582.805 15.9688C583.201 15.9688 583.547 15.888 583.844 15.7266C584.146 15.5599 584.396 15.3333 584.594 15.0469C584.792 14.7604 584.94 14.4323 585.039 14.0625C585.143 13.6875 585.195 13.2891 585.195 12.8672V12.6875C585.195 12.2708 585.143 11.8776 585.039 11.5078C584.94 11.1328 584.789 10.8021 584.586 10.5156C584.388 10.224 584.138 9.99479 583.836 9.82812C583.539 9.66146 583.19 9.57812 582.789 9.57812C582.393 9.57812 582.044 9.66146 581.742 9.82812C581.445 9.99479 581.195 10.224 580.992 10.5156C580.794 10.8021 580.646 11.1328 580.547 11.5078C580.448 11.8776 580.398 12.2708 580.398 12.6875Z" fill="#8A95AD"/>
<path d="M617.938 5.625V17H616.43V5.625H617.938ZM621.906 10.3516V17H620.461V8.54688H621.828L621.906 10.3516ZM621.562 12.4531L620.961 12.4297C620.966 11.8516 621.052 11.3177 621.219 10.8281C621.385 10.3333 621.62 9.90365 621.922 9.53906C622.224 9.17448 622.583 8.89323 623 8.69531C623.422 8.49219 623.888 8.39062 624.398 8.39062C624.815 8.39062 625.19 8.44792 625.523 8.5625C625.857 8.67188 626.141 8.84896 626.375 9.09375C626.615 9.33854 626.797 9.65625 626.922 10.0469C627.047 10.4323 627.109 10.9036 627.109 11.4609V17H625.656V11.4453C625.656 11.0026 625.591 10.6484 625.461 10.3828C625.331 10.112 625.141 9.91667 624.891 9.79688C624.641 9.67188 624.333 9.60938 623.969 9.60938C623.609 9.60938 623.281 9.6849 622.984 9.83594C622.693 9.98698 622.44 10.1953 622.227 10.4609C622.018 10.7266 621.854 11.0312 621.734 11.375C621.62 11.7135 621.562 12.0729 621.562 12.4531ZM634.227 14.7578C634.227 14.5495 634.18 14.3568 634.086 14.1797C633.997 13.9974 633.812 13.8333 633.531 13.6875C633.255 13.5365 632.839 13.4062 632.281 13.2969C631.812 13.1979 631.388 13.0807 631.008 12.9453C630.633 12.8099 630.312 12.6458 630.047 12.4531C629.786 12.2604 629.586 12.0339 629.445 11.7734C629.305 11.513 629.234 11.2083 629.234 10.8594C629.234 10.526 629.307 10.2109 629.453 9.91406C629.604 9.61719 629.815 9.35417 630.086 9.125C630.362 8.89583 630.693 8.71615 631.078 8.58594C631.464 8.45573 631.893 8.39062 632.367 8.39062C633.044 8.39062 633.622 8.51042 634.102 8.75C634.581 8.98958 634.948 9.3099 635.203 9.71094C635.458 10.1068 635.586 10.5469 635.586 11.0312H634.141C634.141 10.7969 634.07 10.5703 633.93 10.3516C633.794 10.1276 633.594 9.94271 633.328 9.79688C633.068 9.65104 632.747 9.57812 632.367 9.57812C631.966 9.57812 631.641 9.64062 631.391 9.76562C631.146 9.88542 630.966 10.0391 630.852 10.2266C630.742 10.4141 630.688 10.612 630.688 10.8203C630.688 10.9766 630.714 11.1172 630.766 11.2422C630.823 11.362 630.922 11.474 631.062 11.5781C631.203 11.6771 631.401 11.7708 631.656 11.8594C631.911 11.9479 632.237 12.0365 632.633 12.125C633.326 12.2812 633.896 12.4688 634.344 12.6875C634.792 12.9062 635.125 13.1745 635.344 13.4922C635.562 13.8099 635.672 14.1953 635.672 14.6484C635.672 15.0182 635.594 15.3568 635.438 15.6641C635.286 15.9714 635.065 16.237 634.773 16.4609C634.487 16.6797 634.143 16.8516 633.742 16.9766C633.346 17.0964 632.901 17.1562 632.406 17.1562C631.661 17.1562 631.031 17.0234 630.516 16.7578C630 16.4922 629.609 16.1484 629.344 15.7266C629.078 15.3047 628.945 14.8594 628.945 14.3906H630.398C630.419 14.7865 630.534 15.1016 630.742 15.3359C630.951 15.5651 631.206 15.7292 631.508 15.8281C631.81 15.9219 632.109 15.9688 632.406 15.9688C632.802 15.9688 633.133 15.9167 633.398 15.8125C633.669 15.7083 633.875 15.5651 634.016 15.3828C634.156 15.2005 634.227 14.9922 634.227 14.7578ZM641.109 8.54688V9.65625H636.539V8.54688H641.109ZM638.086 6.49219H639.531V14.9062C639.531 15.1927 639.576 15.4089 639.664 15.5547C639.753 15.7005 639.867 15.7969 640.008 15.8438C640.148 15.8906 640.299 15.9141 640.461 15.9141C640.581 15.9141 640.706 15.9036 640.836 15.8828C640.971 15.8568 641.073 15.8359 641.141 15.8203L641.148 17C641.034 17.0365 640.883 17.0703 640.695 17.1016C640.513 17.138 640.292 17.1562 640.031 17.1562C639.677 17.1562 639.352 17.0859 639.055 16.9453C638.758 16.8047 638.521 16.5703 638.344 16.2422C638.172 15.9089 638.086 15.4609 638.086 14.8984V6.49219ZM644.25 9.875V17H642.805V8.54688H644.211L644.25 9.875ZM646.891 8.5L646.883 9.84375C646.763 9.81771 646.648 9.80208 646.539 9.79688C646.435 9.78646 646.315 9.78125 646.18 9.78125C645.846 9.78125 645.552 9.83333 645.297 9.9375C645.042 10.0417 644.826 10.1875 644.648 10.375C644.471 10.5625 644.331 10.7865 644.227 11.0469C644.128 11.3021 644.062 11.5833 644.031 11.8906L643.625 12.125C643.625 11.6146 643.674 11.1354 643.773 10.6875C643.878 10.2396 644.036 9.84375 644.25 9.5C644.464 9.15104 644.734 8.88021 645.062 8.6875C645.396 8.48958 645.792 8.39062 646.25 8.39062C646.354 8.39062 646.474 8.40365 646.609 8.42969C646.745 8.45052 646.839 8.47396 646.891 8.5ZM653.398 15.0469V8.54688H654.852V17H653.469L653.398 15.0469ZM653.672 13.2656L654.273 13.25C654.273 13.8125 654.214 14.3333 654.094 14.8125C653.979 15.2865 653.792 15.6979 653.531 16.0469C653.271 16.3958 652.93 16.6693 652.508 16.8672C652.086 17.0599 651.573 17.1562 650.969 17.1562C650.557 17.1562 650.18 17.0964 649.836 16.9766C649.497 16.8568 649.206 16.6719 648.961 16.4219C648.716 16.1719 648.526 15.8464 648.391 15.4453C648.26 15.0443 648.195 14.5625 648.195 14V8.54688H649.641V14.0156C649.641 14.3958 649.682 14.7109 649.766 14.9609C649.854 15.2057 649.971 15.401 650.117 15.5469C650.268 15.6875 650.435 15.7865 650.617 15.8438C650.805 15.901 650.997 15.9297 651.195 15.9297C651.81 15.9297 652.297 15.8125 652.656 15.5781C653.016 15.3385 653.273 15.0182 653.43 14.6172C653.591 14.2109 653.672 13.7604 653.672 13.2656ZM660.438 15.9688C660.781 15.9688 661.099 15.8984 661.391 15.7578C661.682 15.6172 661.922 15.4245 662.109 15.1797C662.297 14.9297 662.404 14.6458 662.43 14.3281H663.805C663.779 14.8281 663.609 15.2943 663.297 15.7266C662.99 16.1536 662.586 16.5 662.086 16.7656C661.586 17.026 661.036 17.1562 660.438 17.1562C659.802 17.1562 659.247 17.0443 658.773 16.8203C658.305 16.5964 657.914 16.2891 657.602 15.8984C657.294 15.5078 657.062 15.0599 656.906 14.5547C656.755 14.0443 656.68 13.5052 656.68 12.9375V12.6094C656.68 12.0417 656.755 11.5052 656.906 11C657.062 10.4896 657.294 10.0391 657.602 9.64844C657.914 9.25781 658.305 8.95052 658.773 8.72656C659.247 8.5026 659.802 8.39062 660.438 8.39062C661.099 8.39062 661.677 8.52604 662.172 8.79688C662.667 9.0625 663.055 9.42708 663.336 9.89062C663.622 10.349 663.779 10.8698 663.805 11.4531H662.43C662.404 11.1042 662.305 10.7891 662.133 10.5078C661.966 10.2266 661.737 10.0026 661.445 9.83594C661.159 9.66406 660.823 9.57812 660.438 9.57812C659.995 9.57812 659.622 9.66667 659.32 9.84375C659.023 10.0156 658.786 10.25 658.609 10.5469C658.438 10.8385 658.312 11.1641 658.234 11.5234C658.161 11.8776 658.125 12.2396 658.125 12.6094V12.9375C658.125 13.3073 658.161 13.6719 658.234 14.0312C658.307 14.3906 658.43 14.7161 658.602 15.0078C658.779 15.2995 659.016 15.5339 659.312 15.7109C659.615 15.8828 659.99 15.9688 660.438 15.9688ZM668.969 8.54688V9.65625H664.398V8.54688H668.969ZM665.945 6.49219H667.391V14.9062C667.391 15.1927 667.435 15.4089 667.523 15.5547C667.612 15.7005 667.727 15.7969 667.867 15.8438C668.008 15.8906 668.159 15.9141 668.32 15.9141C668.44 15.9141 668.565 15.9036 668.695 15.8828C668.831 15.8568 668.932 15.8359 669 15.8203L669.008 17C668.893 17.0365 668.742 17.0703 668.555 17.1016C668.372 17.138 668.151 17.1562 667.891 17.1562C667.536 17.1562 667.211 17.0859 666.914 16.9453C666.617 16.8047 666.38 16.5703 666.203 16.2422C666.031 15.9089 665.945 15.4609 665.945 14.8984V6.49219ZM672.234 8.54688V17H670.781V8.54688H672.234ZM670.672 6.30469C670.672 6.07031 670.742 5.8724 670.883 5.71094C671.029 5.54948 671.242 5.46875 671.523 5.46875C671.799 5.46875 672.01 5.54948 672.156 5.71094C672.307 5.8724 672.383 6.07031 672.383 6.30469C672.383 6.52865 672.307 6.72135 672.156 6.88281C672.01 7.03906 671.799 7.11719 671.523 7.11719C671.242 7.11719 671.029 7.03906 670.883 6.88281C670.742 6.72135 670.672 6.52865 670.672 6.30469ZM674.172 12.8672V12.6875C674.172 12.0781 674.26 11.513 674.438 10.9922C674.615 10.4661 674.87 10.0104 675.203 9.625C675.536 9.23438 675.94 8.93229 676.414 8.71875C676.888 8.5 677.419 8.39062 678.008 8.39062C678.602 8.39062 679.135 8.5 679.609 8.71875C680.089 8.93229 680.495 9.23438 680.828 9.625C681.167 10.0104 681.424 10.4661 681.602 10.9922C681.779 11.513 681.867 12.0781 681.867 12.6875V12.8672C681.867 13.4766 681.779 14.0417 681.602 14.5625C681.424 15.0833 681.167 15.5391 680.828 15.9297C680.495 16.3151 680.091 16.6172 679.617 16.8359C679.148 17.0495 678.617 17.1562 678.023 17.1562C677.43 17.1562 676.896 17.0495 676.422 16.8359C675.948 16.6172 675.542 16.3151 675.203 15.9297C674.87 15.5391 674.615 15.0833 674.438 14.5625C674.26 14.0417 674.172 13.4766 674.172 12.8672ZM675.617 12.6875V12.8672C675.617 13.2891 675.667 13.6875 675.766 14.0625C675.865 14.4323 676.013 14.7604 676.211 15.0469C676.414 15.3333 676.667 15.5599 676.969 15.7266C677.271 15.888 677.622 15.9688 678.023 15.9688C678.419 15.9688 678.766 15.888 679.062 15.7266C679.365 15.5599 679.615 15.3333 679.812 15.0469C680.01 14.7604 680.159 14.4323 680.258 14.0625C680.362 13.6875 680.414 13.2891 680.414 12.8672V12.6875C680.414 12.2708 680.362 11.8776 680.258 11.5078C680.159 11.1328 680.008 10.8021 679.805 10.5156C679.607 10.224 679.357 9.99479 679.055 9.82812C678.758 9.66146 678.409 9.57812 678.008 9.57812C677.612 9.57812 677.263 9.66146 676.961 9.82812C676.664 9.99479 676.414 10.224 676.211 10.5156C676.013 10.8021 675.865 11.1328 675.766 11.5078C675.667 11.8776 675.617 12.2708 675.617 12.6875ZM685.125 10.3516V17H683.68V8.54688H685.047L685.125 10.3516ZM684.781 12.4531L684.18 12.4297C684.185 11.8516 684.271 11.3177 684.438 10.8281C684.604 10.3333 684.839 9.90365 685.141 9.53906C685.443 9.17448 685.802 8.89323 686.219 8.69531C686.641 8.49219 687.107 8.39062 687.617 8.39062C688.034 8.39062 688.409 8.44792 688.742 8.5625C689.076 8.67188 689.359 8.84896 689.594 9.09375C689.833 9.33854 690.016 9.65625 690.141 10.0469C690.266 10.4323 690.328 10.9036 690.328 11.4609V17H688.875V11.4453C688.875 11.0026 688.81 10.6484 688.68 10.3828C688.549 10.112 688.359 9.91667 688.109 9.79688C687.859 9.67188 687.552 9.60938 687.188 9.60938C686.828 9.60938 686.5 9.6849 686.203 9.83594C685.911 9.98698 685.659 10.1953 685.445 10.4609C685.237 10.7266 685.073 11.0312 684.953 11.375C684.839 11.7135 684.781 12.0729 684.781 12.4531ZM697.445 14.7578C697.445 14.5495 697.398 14.3568 697.305 14.1797C697.216 13.9974 697.031 13.8333 696.75 13.6875C696.474 13.5365 696.057 13.4062 695.5 13.2969C695.031 13.1979 694.607 13.0807 694.227 12.9453C693.852 12.8099 693.531 12.6458 693.266 12.4531C693.005 12.2604 692.805 12.0339 692.664 11.7734C692.523 11.513 692.453 11.2083 692.453 10.8594C692.453 10.526 692.526 10.2109 692.672 9.91406C692.823 9.61719 693.034 9.35417 693.305 9.125C693.581 8.89583 693.911 8.71615 694.297 8.58594C694.682 8.45573 695.112 8.39062 695.586 8.39062C696.263 8.39062 696.841 8.51042 697.32 8.75C697.799 8.98958 698.167 9.3099 698.422 9.71094C698.677 10.1068 698.805 10.5469 698.805 11.0312H697.359C697.359 10.7969 697.289 10.5703 697.148 10.3516C697.013 10.1276 696.812 9.94271 696.547 9.79688C696.286 9.65104 695.966 9.57812 695.586 9.57812C695.185 9.57812 694.859 9.64062 694.609 9.76562C694.365 9.88542 694.185 10.0391 694.07 10.2266C693.961 10.4141 693.906 10.612 693.906 10.8203C693.906 10.9766 693.932 11.1172 693.984 11.2422C694.042 11.362 694.141 11.474 694.281 11.5781C694.422 11.6771 694.62 11.7708 694.875 11.8594C695.13 11.9479 695.456 12.0365 695.852 12.125C696.544 12.2812 697.115 12.4688 697.562 12.6875C698.01 12.9062 698.344 13.1745 698.562 13.4922C698.781 13.8099 698.891 14.1953 698.891 14.6484C698.891 15.0182 698.812 15.3568 698.656 15.6641C698.505 15.9714 698.284 16.237 697.992 16.4609C697.706 16.6797 697.362 16.8516 696.961 16.9766C696.565 17.0964 696.12 17.1562 695.625 17.1562C694.88 17.1562 694.25 17.0234 693.734 16.7578C693.219 16.4922 692.828 16.1484 692.562 15.7266C692.297 15.3047 692.164 14.8594 692.164 14.3906H693.617C693.638 14.7865 693.753 15.1016 693.961 15.3359C694.169 15.5651 694.424 15.7292 694.727 15.8281C695.029 15.9219 695.328 15.9688 695.625 15.9688C696.021 15.9688 696.352 15.9167 696.617 15.8125C696.888 15.7083 697.094 15.5651 697.234 15.3828C697.375 15.2005 697.445 14.9922 697.445 14.7578Z" fill="#8A95AD"/>
<path d="M736.188 13.3828H737.688C737.609 14.1016 737.404 14.7448 737.07 15.3125C736.737 15.8802 736.266 16.3307 735.656 16.6641C735.047 16.9922 734.286 17.1562 733.375 17.1562C732.708 17.1562 732.102 17.0312 731.555 16.7812C731.013 16.5312 730.547 16.1771 730.156 15.7188C729.766 15.2552 729.464 14.7005 729.25 14.0547C729.042 13.4036 728.938 12.6797 728.938 11.8828V10.75C728.938 9.95312 729.042 9.23177 729.25 8.58594C729.464 7.9349 729.768 7.3776 730.164 6.91406C730.565 6.45052 731.047 6.09375 731.609 5.84375C732.172 5.59375 732.805 5.46875 733.508 5.46875C734.367 5.46875 735.094 5.63021 735.688 5.95312C736.281 6.27604 736.742 6.72396 737.07 7.29688C737.404 7.86458 737.609 8.52344 737.688 9.27344H736.188C736.115 8.74219 735.979 8.28646 735.781 7.90625C735.583 7.52083 735.302 7.22396 734.938 7.01562C734.573 6.80729 734.096 6.70312 733.508 6.70312C733.003 6.70312 732.557 6.79948 732.172 6.99219C731.792 7.1849 731.471 7.45833 731.211 7.8125C730.956 8.16667 730.763 8.59115 730.633 9.08594C730.503 9.58073 730.438 10.1302 730.438 10.7344V11.8828C730.438 12.4401 730.495 12.9635 730.609 13.4531C730.729 13.9427 730.909 14.3724 731.148 14.7422C731.388 15.112 731.693 15.4036 732.062 15.6172C732.432 15.8255 732.87 15.9297 733.375 15.9297C734.016 15.9297 734.526 15.8281 734.906 15.625C735.286 15.4219 735.573 15.1302 735.766 14.75C735.964 14.3698 736.104 13.9141 736.188 13.3828ZM740.969 5V17H739.523V5H740.969ZM740.625 12.4531L740.023 12.4297C740.029 11.8516 740.115 11.3177 740.281 10.8281C740.448 10.3333 740.682 9.90365 740.984 9.53906C741.286 9.17448 741.646 8.89323 742.062 8.69531C742.484 8.49219 742.951 8.39062 743.461 8.39062C743.878 8.39062 744.253 8.44792 744.586 8.5625C744.919 8.67188 745.203 8.84896 745.438 9.09375C745.677 9.33854 745.859 9.65625 745.984 10.0469C746.109 10.4323 746.172 10.9036 746.172 11.4609V17H744.719V11.4453C744.719 11.0026 744.654 10.6484 744.523 10.3828C744.393 10.112 744.203 9.91667 743.953 9.79688C743.703 9.67188 743.396 9.60938 743.031 9.60938C742.672 9.60938 742.344 9.6849 742.047 9.83594C741.755 9.98698 741.503 10.1953 741.289 10.4609C741.081 10.7266 740.917 11.0312 740.797 11.375C740.682 11.7135 740.625 12.0729 740.625 12.4531ZM753.32 15.5547V11.2031C753.32 10.8698 753.253 10.5807 753.117 10.3359C752.987 10.0859 752.789 9.89323 752.523 9.75781C752.258 9.6224 751.93 9.55469 751.539 9.55469C751.174 9.55469 750.854 9.61719 750.578 9.74219C750.307 9.86719 750.094 10.0312 749.938 10.2344C749.786 10.4375 749.711 10.6562 749.711 10.8906H748.266C748.266 10.5885 748.344 10.2891 748.5 9.99219C748.656 9.69531 748.88 9.42708 749.172 9.1875C749.469 8.94271 749.823 8.75 750.234 8.60938C750.651 8.46354 751.115 8.39062 751.625 8.39062C752.24 8.39062 752.781 8.49479 753.25 8.70312C753.724 8.91146 754.094 9.22656 754.359 9.64844C754.63 10.0651 754.766 10.5885 754.766 11.2188V15.1562C754.766 15.4375 754.789 15.737 754.836 16.0547C754.888 16.3724 754.964 16.6458 755.062 16.875V17H753.555C753.482 16.8333 753.424 16.612 753.383 16.3359C753.341 16.0547 753.32 15.7943 753.32 15.5547ZM753.57 11.875L753.586 12.8906H752.125C751.714 12.8906 751.346 12.9245 751.023 12.9922C750.701 13.0547 750.43 13.151 750.211 13.2812C749.992 13.4115 749.826 13.5755 749.711 13.7734C749.596 13.9661 749.539 14.1927 749.539 14.4531C749.539 14.7188 749.599 14.9609 749.719 15.1797C749.839 15.3984 750.018 15.5729 750.258 15.7031C750.503 15.8281 750.802 15.8906 751.156 15.8906C751.599 15.8906 751.99 15.7969 752.328 15.6094C752.667 15.4219 752.935 15.1927 753.133 14.9219C753.336 14.651 753.445 14.388 753.461 14.1328L754.078 14.8281C754.042 15.0469 753.943 15.2891 753.781 15.5547C753.62 15.8203 753.404 16.0755 753.133 16.3203C752.867 16.5599 752.549 16.7604 752.18 16.9219C751.815 17.0781 751.404 17.1562 750.945 17.1562C750.372 17.1562 749.87 17.0443 749.438 16.8203C749.01 16.5964 748.677 16.2969 748.438 15.9219C748.203 15.5417 748.086 15.1172 748.086 14.6484C748.086 14.1953 748.174 13.7969 748.352 13.4531C748.529 13.1042 748.784 12.8151 749.117 12.5859C749.451 12.3516 749.852 12.1745 750.32 12.0547C750.789 11.9349 751.312 11.875 751.891 11.875H753.57ZM758.484 10.3516V17H757.039V8.54688H758.406L758.484 10.3516ZM758.141 12.4531L757.539 12.4297C757.544 11.8516 757.63 11.3177 757.797 10.8281C757.964 10.3333 758.198 9.90365 758.5 9.53906C758.802 9.17448 759.161 8.89323 759.578 8.69531C760 8.49219 760.466 8.39062 760.977 8.39062C761.393 8.39062 761.768 8.44792 762.102 8.5625C762.435 8.67188 762.719 8.84896 762.953 9.09375C763.193 9.33854 763.375 9.65625 763.5 10.0469C763.625 10.4323 763.688 10.9036 763.688 11.4609V17H762.234V11.4453C762.234 11.0026 762.169 10.6484 762.039 10.3828C761.909 10.112 761.719 9.91667 761.469 9.79688C761.219 9.67188 760.911 9.60938 760.547 9.60938C760.188 9.60938 759.859 9.6849 759.562 9.83594C759.271 9.98698 759.018 10.1953 758.805 10.4609C758.596 10.7266 758.432 11.0312 758.312 11.375C758.198 11.7135 758.141 12.0729 758.141 12.4531ZM771.359 8.54688H772.672V16.8203C772.672 17.5651 772.521 18.2005 772.219 18.7266C771.917 19.2526 771.495 19.651 770.953 19.9219C770.417 20.1979 769.797 20.3359 769.094 20.3359C768.802 20.3359 768.458 20.2891 768.062 20.1953C767.672 20.1068 767.286 19.9531 766.906 19.7344C766.531 19.5208 766.216 19.2318 765.961 18.8672L766.719 18.0078C767.073 18.4349 767.443 18.7318 767.828 18.8984C768.219 19.0651 768.604 19.1484 768.984 19.1484C769.443 19.1484 769.839 19.0625 770.172 18.8906C770.505 18.7188 770.763 18.4635 770.945 18.125C771.133 17.7917 771.227 17.3802 771.227 16.8906V10.4062L771.359 8.54688ZM765.539 12.8672V12.7031C765.539 12.0573 765.615 11.4714 765.766 10.9453C765.922 10.4141 766.143 9.95833 766.43 9.57812C766.721 9.19792 767.073 8.90625 767.484 8.70312C767.896 8.49479 768.359 8.39062 768.875 8.39062C769.406 8.39062 769.87 8.48438 770.266 8.67188C770.667 8.85417 771.005 9.1224 771.281 9.47656C771.562 9.82552 771.784 10.2474 771.945 10.7422C772.107 11.237 772.219 11.7969 772.281 12.4219V13.1406C772.224 13.7604 772.112 14.3177 771.945 14.8125C771.784 15.3073 771.562 15.7292 771.281 16.0781C771.005 16.4271 770.667 16.6953 770.266 16.8828C769.865 17.0651 769.396 17.1562 768.859 17.1562C768.354 17.1562 767.896 17.0495 767.484 16.8359C767.078 16.6224 766.729 16.3229 766.438 15.9375C766.146 15.5521 765.922 15.099 765.766 14.5781C765.615 14.0521 765.539 13.4818 765.539 12.8672ZM766.984 12.7031V12.8672C766.984 13.2891 767.026 13.6849 767.109 14.0547C767.198 14.4245 767.331 14.75 767.508 15.0312C767.69 15.3125 767.922 15.5339 768.203 15.6953C768.484 15.8516 768.82 15.9297 769.211 15.9297C769.69 15.9297 770.086 15.8281 770.398 15.625C770.711 15.4219 770.958 15.1536 771.141 14.8203C771.328 14.487 771.474 14.125 771.578 13.7344V11.8516C771.521 11.5651 771.432 11.2891 771.312 11.0234C771.198 10.7526 771.047 10.513 770.859 10.3047C770.677 10.0911 770.451 9.92188 770.18 9.79688C769.909 9.67188 769.591 9.60938 769.227 9.60938C768.831 9.60938 768.49 9.69271 768.203 9.85938C767.922 10.0208 767.69 10.2448 767.508 10.5312C767.331 10.8125 767.198 11.1406 767.109 11.5156C767.026 11.8854 766.984 12.2812 766.984 12.7031ZM778.375 17.1562C777.786 17.1562 777.253 17.0573 776.773 16.8594C776.299 16.6562 775.891 16.3724 775.547 16.0078C775.208 15.6432 774.948 15.2109 774.766 14.7109C774.583 14.2109 774.492 13.6641 774.492 13.0703V12.7422C774.492 12.0547 774.594 11.4427 774.797 10.9062C775 10.3646 775.276 9.90625 775.625 9.53125C775.974 9.15625 776.37 8.8724 776.812 8.67969C777.255 8.48698 777.714 8.39062 778.188 8.39062C778.792 8.39062 779.312 8.49479 779.75 8.70312C780.193 8.91146 780.555 9.20312 780.836 9.57812C781.117 9.94792 781.326 10.3854 781.461 10.8906C781.596 11.3906 781.664 11.9375 781.664 12.5312V13.1797H775.352V12H780.219V11.8906C780.198 11.5156 780.12 11.151 779.984 10.7969C779.854 10.4427 779.646 10.151 779.359 9.92188C779.073 9.69271 778.682 9.57812 778.188 9.57812C777.859 9.57812 777.557 9.64844 777.281 9.78906C777.005 9.92448 776.768 10.1276 776.57 10.3984C776.372 10.6693 776.219 11 776.109 11.3906C776 11.7812 775.945 12.2318 775.945 12.7422V13.0703C775.945 13.4714 776 13.849 776.109 14.2031C776.224 14.5521 776.388 14.8594 776.602 15.125C776.82 15.3906 777.083 15.599 777.391 15.75C777.703 15.901 778.057 15.9766 778.453 15.9766C778.964 15.9766 779.396 15.8724 779.75 15.6641C780.104 15.4557 780.414 15.1771 780.68 14.8281L781.555 15.5234C781.372 15.7995 781.141 16.0625 780.859 16.3125C780.578 16.5625 780.232 16.7656 779.82 16.9219C779.414 17.0781 778.932 17.1562 778.375 17.1562ZM784.922 5V17H783.469V5H784.922ZM786.859 12.8672V12.6875C786.859 12.0781 786.948 11.513 787.125 10.9922C787.302 10.4661 787.557 10.0104 787.891 9.625C788.224 9.23438 788.628 8.93229 789.102 8.71875C789.576 8.5 790.107 8.39062 790.695 8.39062C791.289 8.39062 791.823 8.5 792.297 8.71875C792.776 8.93229 793.182 9.23438 793.516 9.625C793.854 10.0104 794.112 10.4661 794.289 10.9922C794.466 11.513 794.555 12.0781 794.555 12.6875V12.8672C794.555 13.4766 794.466 14.0417 794.289 14.5625C794.112 15.0833 793.854 15.5391 793.516 15.9297C793.182 16.3151 792.779 16.6172 792.305 16.8359C791.836 17.0495 791.305 17.1562 790.711 17.1562C790.117 17.1562 789.583 17.0495 789.109 16.8359C788.635 16.6172 788.229 16.3151 787.891 15.9297C787.557 15.5391 787.302 15.0833 787.125 14.5625C786.948 14.0417 786.859 13.4766 786.859 12.8672ZM788.305 12.6875V12.8672C788.305 13.2891 788.354 13.6875 788.453 14.0625C788.552 14.4323 788.701 14.7604 788.898 15.0469C789.102 15.3333 789.354 15.5599 789.656 15.7266C789.958 15.888 790.31 15.9688 790.711 15.9688C791.107 15.9688 791.453 15.888 791.75 15.7266C792.052 15.5599 792.302 15.3333 792.5 15.0469C792.698 14.7604 792.846 14.4323 792.945 14.0625C793.049 13.6875 793.102 13.2891 793.102 12.8672V12.6875C793.102 12.2708 793.049 11.8776 792.945 11.5078C792.846 11.1328 792.695 10.8021 792.492 10.5156C792.294 10.224 792.044 9.99479 791.742 9.82812C791.445 9.66146 791.096 9.57812 790.695 9.57812C790.299 9.57812 789.951 9.66146 789.648 9.82812C789.352 9.99479 789.102 10.224 788.898 10.5156C788.701 10.8021 788.552 11.1328 788.453 11.5078C788.354 11.8776 788.305 12.2708 788.305 12.6875ZM801.844 8.54688H803.156V16.8203C803.156 17.5651 803.005 18.2005 802.703 18.7266C802.401 19.2526 801.979 19.651 801.438 19.9219C800.901 20.1979 800.281 20.3359 799.578 20.3359C799.286 20.3359 798.943 20.2891 798.547 20.1953C798.156 20.1068 797.771 19.9531 797.391 19.7344C797.016 19.5208 796.701 19.2318 796.445 18.8672L797.203 18.0078C797.557 18.4349 797.927 18.7318 798.312 18.8984C798.703 19.0651 799.089 19.1484 799.469 19.1484C799.927 19.1484 800.323 19.0625 800.656 18.8906C800.99 18.7188 801.247 18.4635 801.43 18.125C801.617 17.7917 801.711 17.3802 801.711 16.8906V10.4062L801.844 8.54688ZM796.023 12.8672V12.7031C796.023 12.0573 796.099 11.4714 796.25 10.9453C796.406 10.4141 796.628 9.95833 796.914 9.57812C797.206 9.19792 797.557 8.90625 797.969 8.70312C798.38 8.49479 798.844 8.39062 799.359 8.39062C799.891 8.39062 800.354 8.48438 800.75 8.67188C801.151 8.85417 801.49 9.1224 801.766 9.47656C802.047 9.82552 802.268 10.2474 802.43 10.7422C802.591 11.237 802.703 11.7969 802.766 12.4219V13.1406C802.708 13.7604 802.596 14.3177 802.43 14.8125C802.268 15.3073 802.047 15.7292 801.766 16.0781C801.49 16.4271 801.151 16.6953 800.75 16.8828C800.349 17.0651 799.88 17.1562 799.344 17.1562C798.839 17.1562 798.38 17.0495 797.969 16.8359C797.562 16.6224 797.214 16.3229 796.922 15.9375C796.63 15.5521 796.406 15.099 796.25 14.5781C796.099 14.0521 796.023 13.4818 796.023 12.8672ZM797.469 12.7031V12.8672C797.469 13.2891 797.51 13.6849 797.594 14.0547C797.682 14.4245 797.815 14.75 797.992 15.0312C798.174 15.3125 798.406 15.5339 798.688 15.6953C798.969 15.8516 799.305 15.9297 799.695 15.9297C800.174 15.9297 800.57 15.8281 800.883 15.625C801.195 15.4219 801.443 15.1536 801.625 14.8203C801.812 14.487 801.958 14.125 802.062 13.7344V11.8516C802.005 11.5651 801.917 11.2891 801.797 11.0234C801.682 10.7526 801.531 10.513 801.344 10.3047C801.161 10.0911 800.935 9.92188 800.664 9.79688C800.393 9.67188 800.076 9.60938 799.711 9.60938C799.315 9.60938 798.974 9.69271 798.688 9.85938C798.406 10.0208 798.174 10.2448 797.992 10.5312C797.815 10.8125 797.682 11.1406 797.594 11.5156C797.51 11.8854 797.469 12.2812 797.469 12.7031Z" fill="#8A95AD"/>
<path d="M838.383 14.125C838.383 13.8594 838.341 13.625 838.258 13.4219C838.18 13.2135 838.039 13.026 837.836 12.8594C837.638 12.6927 837.362 12.5339 837.008 12.3828C836.659 12.2318 836.216 12.0781 835.68 11.9219C835.117 11.7552 834.609 11.5703 834.156 11.3672C833.703 11.1589 833.315 10.9219 832.992 10.6562C832.669 10.3906 832.422 10.0859 832.25 9.74219C832.078 9.39844 831.992 9.00521 831.992 8.5625C831.992 8.11979 832.083 7.71094 832.266 7.33594C832.448 6.96094 832.708 6.63542 833.047 6.35938C833.391 6.07812 833.799 5.85938 834.273 5.70312C834.747 5.54688 835.276 5.46875 835.859 5.46875C836.714 5.46875 837.438 5.63281 838.031 5.96094C838.63 6.28385 839.086 6.70833 839.398 7.23438C839.711 7.75521 839.867 8.3125 839.867 8.90625H838.367C838.367 8.47917 838.276 8.10156 838.094 7.77344C837.911 7.4401 837.635 7.17969 837.266 6.99219C836.896 6.79948 836.427 6.70312 835.859 6.70312C835.323 6.70312 834.88 6.78385 834.531 6.94531C834.182 7.10677 833.922 7.32552 833.75 7.60156C833.583 7.8776 833.5 8.19271 833.5 8.54688C833.5 8.78646 833.549 9.00521 833.648 9.20312C833.753 9.39583 833.911 9.57552 834.125 9.74219C834.344 9.90885 834.62 10.0625 834.953 10.2031C835.292 10.3438 835.695 10.4792 836.164 10.6094C836.81 10.7917 837.367 10.9948 837.836 11.2188C838.305 11.4427 838.69 11.6953 838.992 11.9766C839.299 12.2526 839.526 12.5677 839.672 12.9219C839.823 13.2708 839.898 13.6667 839.898 14.1094C839.898 14.5729 839.805 14.9922 839.617 15.3672C839.43 15.7422 839.161 16.0625 838.812 16.3281C838.464 16.5938 838.044 16.7995 837.555 16.9453C837.07 17.0859 836.529 17.1562 835.93 17.1562C835.404 17.1562 834.885 17.0833 834.375 16.9375C833.87 16.7917 833.409 16.5729 832.992 16.2812C832.581 15.9896 832.25 15.6302 832 15.2031C831.755 14.7708 831.633 14.2708 831.633 13.7031H833.133C833.133 14.0938 833.208 14.4297 833.359 14.7109C833.51 14.987 833.716 15.2161 833.977 15.3984C834.242 15.5807 834.542 15.7161 834.875 15.8047C835.214 15.888 835.565 15.9297 835.93 15.9297C836.456 15.9297 836.901 15.8568 837.266 15.7109C837.63 15.5651 837.906 15.3568 838.094 15.0859C838.286 14.8151 838.383 14.4948 838.383 14.125ZM845.141 8.54688V9.65625H840.57V8.54688H845.141ZM842.117 6.49219H843.562V14.9062C843.562 15.1927 843.607 15.4089 843.695 15.5547C843.784 15.7005 843.898 15.7969 844.039 15.8438C844.18 15.8906 844.331 15.9141 844.492 15.9141C844.612 15.9141 844.737 15.9036 844.867 15.8828C845.003 15.8568 845.104 15.8359 845.172 15.8203L845.18 17C845.065 17.0365 844.914 17.0703 844.727 17.1016C844.544 17.138 844.323 17.1562 844.062 17.1562C843.708 17.1562 843.383 17.0859 843.086 16.9453C842.789 16.8047 842.552 16.5703 842.375 16.2422C842.203 15.9089 842.117 15.4609 842.117 14.8984V6.49219ZM849.211 16.125L851.562 8.54688H853.109L849.719 18.3047C849.641 18.513 849.536 18.737 849.406 18.9766C849.281 19.2214 849.12 19.4531 848.922 19.6719C848.724 19.8906 848.484 20.0677 848.203 20.2031C847.927 20.3438 847.596 20.4141 847.211 20.4141C847.096 20.4141 846.951 20.3984 846.773 20.3672C846.596 20.3359 846.471 20.3099 846.398 20.2891L846.391 19.1172C846.432 19.1224 846.497 19.1276 846.586 19.1328C846.68 19.1432 846.745 19.1484 846.781 19.1484C847.109 19.1484 847.388 19.1042 847.617 19.0156C847.846 18.9323 848.039 18.7891 848.195 18.5859C848.357 18.388 848.495 18.1146 848.609 17.7656L849.211 16.125ZM847.484 8.54688L849.68 15.1094L850.055 16.6328L849.016 17.1641L845.906 8.54688H847.484ZM855.984 5V17H854.531V5H855.984ZM861.812 17.1562C861.224 17.1562 860.69 17.0573 860.211 16.8594C859.737 16.6562 859.328 16.3724 858.984 16.0078C858.646 15.6432 858.385 15.2109 858.203 14.7109C858.021 14.2109 857.93 13.6641 857.93 13.0703V12.7422C857.93 12.0547 858.031 11.4427 858.234 10.9062C858.438 10.3646 858.714 9.90625 859.062 9.53125C859.411 9.15625 859.807 8.8724 860.25 8.67969C860.693 8.48698 861.151 8.39062 861.625 8.39062C862.229 8.39062 862.75 8.49479 863.188 8.70312C863.63 8.91146 863.992 9.20312 864.273 9.57812C864.555 9.94792 864.763 10.3854 864.898 10.8906C865.034 11.3906 865.102 11.9375 865.102 12.5312V13.1797H858.789V12H863.656V11.8906C863.635 11.5156 863.557 11.151 863.422 10.7969C863.292 10.4427 863.083 10.151 862.797 9.92188C862.51 9.69271 862.12 9.57812 861.625 9.57812C861.297 9.57812 860.995 9.64844 860.719 9.78906C860.443 9.92448 860.206 10.1276 860.008 10.3984C859.81 10.6693 859.656 11 859.547 11.3906C859.438 11.7812 859.383 12.2318 859.383 12.7422V13.0703C859.383 13.4714 859.438 13.849 859.547 14.2031C859.661 14.5521 859.826 14.8594 860.039 15.125C860.258 15.3906 860.521 15.599 860.828 15.75C861.141 15.901 861.495 15.9766 861.891 15.9766C862.401 15.9766 862.833 15.8724 863.188 15.6641C863.542 15.4557 863.852 15.1771 864.117 14.8281L864.992 15.5234C864.81 15.7995 864.578 16.0625 864.297 16.3125C864.016 16.5625 863.669 16.7656 863.258 16.9219C862.852 17.0781 862.37 17.1562 861.812 17.1562ZM879.383 11.3359V15.5C879.242 15.7083 879.018 15.9427 878.711 16.2031C878.404 16.4583 877.979 16.6823 877.438 16.875C876.901 17.0625 876.208 17.1562 875.359 17.1562C874.667 17.1562 874.029 17.0365 873.445 16.7969C872.867 16.5521 872.365 16.1979 871.938 15.7344C871.516 15.2656 871.188 14.6979 870.953 14.0312C870.724 13.3594 870.609 12.599 870.609 11.75V10.8672C870.609 10.0182 870.708 9.26042 870.906 8.59375C871.109 7.92708 871.406 7.36198 871.797 6.89844C872.188 6.42969 872.667 6.07552 873.234 5.83594C873.802 5.59115 874.453 5.46875 875.188 5.46875C876.057 5.46875 876.784 5.61979 877.367 5.92188C877.956 6.21875 878.414 6.63021 878.742 7.15625C879.076 7.68229 879.289 8.28125 879.383 8.95312H877.875C877.807 8.54167 877.672 8.16667 877.469 7.82812C877.271 7.48958 876.987 7.21875 876.617 7.01562C876.247 6.80729 875.771 6.70312 875.188 6.70312C874.661 6.70312 874.206 6.79948 873.82 6.99219C873.435 7.1849 873.117 7.46094 872.867 7.82031C872.617 8.17969 872.43 8.61458 872.305 9.125C872.185 9.63542 872.125 10.2109 872.125 10.8516V11.75C872.125 12.4062 872.201 12.9922 872.352 13.5078C872.508 14.0234 872.729 14.4635 873.016 14.8281C873.302 15.1875 873.643 15.4609 874.039 15.6484C874.44 15.8359 874.883 15.9297 875.367 15.9297C875.904 15.9297 876.339 15.8854 876.672 15.7969C877.005 15.7031 877.266 15.5938 877.453 15.4688C877.641 15.3385 877.784 15.2161 877.883 15.1016V12.5547H875.25V11.3359H879.383ZM886.836 15.0469V8.54688H888.289V17H886.906L886.836 15.0469ZM887.109 13.2656L887.711 13.25C887.711 13.8125 887.651 14.3333 887.531 14.8125C887.417 15.2865 887.229 15.6979 886.969 16.0469C886.708 16.3958 886.367 16.6693 885.945 16.8672C885.523 17.0599 885.01 17.1562 884.406 17.1562C883.995 17.1562 883.617 17.0964 883.273 16.9766C882.935 16.8568 882.643 16.6719 882.398 16.4219C882.154 16.1719 881.964 15.8464 881.828 15.4453C881.698 15.0443 881.633 14.5625 881.633 14V8.54688H883.078V14.0156C883.078 14.3958 883.12 14.7109 883.203 14.9609C883.292 15.2057 883.409 15.401 883.555 15.5469C883.706 15.6875 883.872 15.7865 884.055 15.8438C884.242 15.901 884.435 15.9297 884.633 15.9297C885.247 15.9297 885.734 15.8125 886.094 15.5781C886.453 15.3385 886.711 15.0182 886.867 14.6172C887.029 14.2109 887.109 13.7604 887.109 13.2656ZM892.062 8.54688V17H890.609V8.54688H892.062ZM890.5 6.30469C890.5 6.07031 890.57 5.8724 890.711 5.71094C890.857 5.54948 891.07 5.46875 891.352 5.46875C891.628 5.46875 891.839 5.54948 891.984 5.71094C892.135 5.8724 892.211 6.07031 892.211 6.30469C892.211 6.52865 892.135 6.72135 891.984 6.88281C891.839 7.03906 891.628 7.11719 891.352 7.11719C891.07 7.11719 890.857 7.03906 890.711 6.88281C890.57 6.72135 890.5 6.52865 890.5 6.30469ZM899.711 15.3594V5H901.164V17H899.836L899.711 15.3594ZM894.023 12.8672V12.7031C894.023 12.0573 894.102 11.4714 894.258 10.9453C894.419 10.4141 894.646 9.95833 894.938 9.57812C895.234 9.19792 895.586 8.90625 895.992 8.70312C896.404 8.49479 896.862 8.39062 897.367 8.39062C897.898 8.39062 898.362 8.48438 898.758 8.67188C899.159 8.85417 899.497 9.1224 899.773 9.47656C900.055 9.82552 900.276 10.2474 900.438 10.7422C900.599 11.237 900.711 11.7969 900.773 12.4219V13.1406C900.716 13.7604 900.604 14.3177 900.438 14.8125C900.276 15.3073 900.055 15.7292 899.773 16.0781C899.497 16.4271 899.159 16.6953 898.758 16.8828C898.357 17.0651 897.888 17.1562 897.352 17.1562C896.857 17.1562 896.404 17.0495 895.992 16.8359C895.586 16.6224 895.234 16.3229 894.938 15.9375C894.646 15.5521 894.419 15.099 894.258 14.5781C894.102 14.0521 894.023 13.4818 894.023 12.8672ZM895.477 12.7031V12.8672C895.477 13.2891 895.518 13.6849 895.602 14.0547C895.69 14.4245 895.826 14.75 896.008 15.0312C896.19 15.3125 896.422 15.5339 896.703 15.6953C896.984 15.8516 897.32 15.9297 897.711 15.9297C898.19 15.9297 898.583 15.8281 898.891 15.625C899.203 15.4219 899.453 15.1536 899.641 14.8203C899.828 14.487 899.974 14.125 900.078 13.7344V11.8516C900.016 11.5651 899.924 11.2891 899.805 11.0234C899.69 10.7526 899.539 10.513 899.352 10.3047C899.169 10.0911 898.943 9.92188 898.672 9.79688C898.406 9.67188 898.091 9.60938 897.727 9.60938C897.331 9.60938 896.99 9.69271 896.703 9.85938C896.422 10.0208 896.19 10.2448 896.008 10.5312C895.826 10.8125 895.69 11.1406 895.602 11.5156C895.518 11.8854 895.477 12.2812 895.477 12.7031ZM906.922 17.1562C906.333 17.1562 905.799 17.0573 905.32 16.8594C904.846 16.6562 904.438 16.3724 904.094 16.0078C903.755 15.6432 903.495 15.2109 903.312 14.7109C903.13 14.2109 903.039 13.6641 903.039 13.0703V12.7422C903.039 12.0547 903.141 11.4427 903.344 10.9062C903.547 10.3646 903.823 9.90625 904.172 9.53125C904.521 9.15625 904.917 8.8724 905.359 8.67969C905.802 8.48698 906.26 8.39062 906.734 8.39062C907.339 8.39062 907.859 8.49479 908.297 8.70312C908.74 8.91146 909.102 9.20312 909.383 9.57812C909.664 9.94792 909.872 10.3854 910.008 10.8906C910.143 11.3906 910.211 11.9375 910.211 12.5312V13.1797H903.898V12H908.766V11.8906C908.745 11.5156 908.667 11.151 908.531 10.7969C908.401 10.4427 908.193 10.151 907.906 9.92188C907.62 9.69271 907.229 9.57812 906.734 9.57812C906.406 9.57812 906.104 9.64844 905.828 9.78906C905.552 9.92448 905.315 10.1276 905.117 10.3984C904.919 10.6693 904.766 11 904.656 11.3906C904.547 11.7812 904.492 12.2318 904.492 12.7422V13.0703C904.492 13.4714 904.547 13.849 904.656 14.2031C904.771 14.5521 904.935 14.8594 905.148 15.125C905.367 15.3906 905.63 15.599 905.938 15.75C906.25 15.901 906.604 15.9766 907 15.9766C907.51 15.9766 907.943 15.8724 908.297 15.6641C908.651 15.4557 908.961 15.1771 909.227 14.8281L910.102 15.5234C909.919 15.7995 909.688 16.0625 909.406 16.3125C909.125 16.5625 908.779 16.7656 908.367 16.9219C907.961 17.0781 907.479 17.1562 906.922 17.1562Z" fill="#8A95AD"/>
<path d="M264.125 16.2344C264.125 15.9896 264.201 15.7839 264.352 15.6172C264.508 15.4453 264.732 15.3594 265.023 15.3594C265.315 15.3594 265.536 15.4453 265.688 15.6172C265.844 15.7839 265.922 15.9896 265.922 16.2344C265.922 16.474 265.844 16.6771 265.688 16.8438C265.536 17.0104 265.315 17.0938 265.023 17.0938C264.732 17.0938 264.508 17.0104 264.352 16.8438C264.201 16.6771 264.125 16.474 264.125 16.2344ZM276.703 12.5391H273.664V11.3125H276.703C277.292 11.3125 277.768 11.2188 278.133 11.0312C278.497 10.8438 278.763 10.5833 278.93 10.25C279.102 9.91667 279.188 9.53646 279.188 9.10938C279.188 8.71875 279.102 8.35156 278.93 8.00781C278.763 7.66406 278.497 7.38802 278.133 7.17969C277.768 6.96615 277.292 6.85938 276.703 6.85938H274.016V17H272.508V5.625H276.703C277.562 5.625 278.289 5.77344 278.883 6.07031C279.477 6.36719 279.927 6.77865 280.234 7.30469C280.542 7.82552 280.695 8.42188 280.695 9.09375C280.695 9.82292 280.542 10.4453 280.234 10.9609C279.927 11.4766 279.477 11.8698 278.883 12.1406C278.289 12.4062 277.562 12.5391 276.703 12.5391ZM281.891 12.8672V12.6875C281.891 12.0781 281.979 11.513 282.156 10.9922C282.333 10.4661 282.589 10.0104 282.922 9.625C283.255 9.23438 283.659 8.93229 284.133 8.71875C284.607 8.5 285.138 8.39062 285.727 8.39062C286.32 8.39062 286.854 8.5 287.328 8.71875C287.807 8.93229 288.214 9.23438 288.547 9.625C288.885 10.0104 289.143 10.4661 289.32 10.9922C289.497 11.513 289.586 12.0781 289.586 12.6875V12.8672C289.586 13.4766 289.497 14.0417 289.32 14.5625C289.143 15.0833 288.885 15.5391 288.547 15.9297C288.214 16.3151 287.81 16.6172 287.336 16.8359C286.867 17.0495 286.336 17.1562 285.742 17.1562C285.148 17.1562 284.615 17.0495 284.141 16.8359C283.667 16.6172 283.26 16.3151 282.922 15.9297C282.589 15.5391 282.333 15.0833 282.156 14.5625C281.979 14.0417 281.891 13.4766 281.891 12.8672ZM283.336 12.6875V12.8672C283.336 13.2891 283.385 13.6875 283.484 14.0625C283.583 14.4323 283.732 14.7604 283.93 15.0469C284.133 15.3333 284.385 15.5599 284.688 15.7266C284.99 15.888 285.341 15.9688 285.742 15.9688C286.138 15.9688 286.484 15.888 286.781 15.7266C287.083 15.5599 287.333 15.3333 287.531 15.0469C287.729 14.7604 287.878 14.4323 287.977 14.0625C288.081 13.6875 288.133 13.2891 288.133 12.8672V12.6875C288.133 12.2708 288.081 11.8776 287.977 11.5078C287.878 11.1328 287.727 10.8021 287.523 10.5156C287.326 10.224 287.076 9.99479 286.773 9.82812C286.477 9.66146 286.128 9.57812 285.727 9.57812C285.331 9.57812 284.982 9.66146 284.68 9.82812C284.383 9.99479 284.133 10.224 283.93 10.5156C283.732 10.8021 283.583 11.1328 283.484 11.5078C283.385 11.8776 283.336 12.2708 283.336 12.6875ZM293.539 15.5L295.711 8.54688H296.664L296.477 9.92969L294.266 17H293.336L293.539 15.5ZM292.078 8.54688L293.93 15.5781L294.062 17H293.086L290.633 8.54688H292.078ZM298.742 15.5234L300.508 8.54688H301.945L299.492 17H298.523L298.742 15.5234ZM296.875 8.54688L299 15.3828L299.242 17H298.32L296.047 9.91406L295.859 8.54688H296.875ZM306.938 17.1562C306.349 17.1562 305.815 17.0573 305.336 16.8594C304.862 16.6562 304.453 16.3724 304.109 16.0078C303.771 15.6432 303.51 15.2109 303.328 14.7109C303.146 14.2109 303.055 13.6641 303.055 13.0703V12.7422C303.055 12.0547 303.156 11.4427 303.359 10.9062C303.562 10.3646 303.839 9.90625 304.188 9.53125C304.536 9.15625 304.932 8.8724 305.375 8.67969C305.818 8.48698 306.276 8.39062 306.75 8.39062C307.354 8.39062 307.875 8.49479 308.312 8.70312C308.755 8.91146 309.117 9.20312 309.398 9.57812C309.68 9.94792 309.888 10.3854 310.023 10.8906C310.159 11.3906 310.227 11.9375 310.227 12.5312V13.1797H303.914V12H308.781V11.8906C308.76 11.5156 308.682 11.151 308.547 10.7969C308.417 10.4427 308.208 10.151 307.922 9.92188C307.635 9.69271 307.245 9.57812 306.75 9.57812C306.422 9.57812 306.12 9.64844 305.844 9.78906C305.568 9.92448 305.331 10.1276 305.133 10.3984C304.935 10.6693 304.781 11 304.672 11.3906C304.562 11.7812 304.508 12.2318 304.508 12.7422V13.0703C304.508 13.4714 304.562 13.849 304.672 14.2031C304.786 14.5521 304.951 14.8594 305.164 15.125C305.383 15.3906 305.646 15.599 305.953 15.75C306.266 15.901 306.62 15.9766 307.016 15.9766C307.526 15.9766 307.958 15.8724 308.312 15.6641C308.667 15.4557 308.977 15.1771 309.242 14.8281L310.117 15.5234C309.935 15.7995 309.703 16.0625 309.422 16.3125C309.141 16.5625 308.794 16.7656 308.383 16.9219C307.977 17.0781 307.495 17.1562 306.938 17.1562ZM313.359 9.875V17H311.914V8.54688H313.32L313.359 9.875ZM316 8.5L315.992 9.84375C315.872 9.81771 315.758 9.80208 315.648 9.79688C315.544 9.78646 315.424 9.78125 315.289 9.78125C314.956 9.78125 314.661 9.83333 314.406 9.9375C314.151 10.0417 313.935 10.1875 313.758 10.375C313.581 10.5625 313.44 10.7865 313.336 11.0469C313.237 11.3021 313.172 11.5833 313.141 11.8906L312.734 12.125C312.734 11.6146 312.784 11.1354 312.883 10.6875C312.987 10.2396 313.146 9.84375 313.359 9.5C313.573 9.15104 313.844 8.88021 314.172 8.6875C314.505 8.48958 314.901 8.39062 315.359 8.39062C315.464 8.39062 315.583 8.40365 315.719 8.42969C315.854 8.45052 315.948 8.47396 316 8.5ZM320.688 17.1562C320.099 17.1562 319.565 17.0573 319.086 16.8594C318.612 16.6562 318.203 16.3724 317.859 16.0078C317.521 15.6432 317.26 15.2109 317.078 14.7109C316.896 14.2109 316.805 13.6641 316.805 13.0703V12.7422C316.805 12.0547 316.906 11.4427 317.109 10.9062C317.312 10.3646 317.589 9.90625 317.938 9.53125C318.286 9.15625 318.682 8.8724 319.125 8.67969C319.568 8.48698 320.026 8.39062 320.5 8.39062C321.104 8.39062 321.625 8.49479 322.062 8.70312C322.505 8.91146 322.867 9.20312 323.148 9.57812C323.43 9.94792 323.638 10.3854 323.773 10.8906C323.909 11.3906 323.977 11.9375 323.977 12.5312V13.1797H317.664V12H322.531V11.8906C322.51 11.5156 322.432 11.151 322.297 10.7969C322.167 10.4427 321.958 10.151 321.672 9.92188C321.385 9.69271 320.995 9.57812 320.5 9.57812C320.172 9.57812 319.87 9.64844 319.594 9.78906C319.318 9.92448 319.081 10.1276 318.883 10.3984C318.685 10.6693 318.531 11 318.422 11.3906C318.312 11.7812 318.258 12.2318 318.258 12.7422V13.0703C318.258 13.4714 318.312 13.849 318.422 14.2031C318.536 14.5521 318.701 14.8594 318.914 15.125C319.133 15.3906 319.396 15.599 319.703 15.75C320.016 15.901 320.37 15.9766 320.766 15.9766C321.276 15.9766 321.708 15.8724 322.062 15.6641C322.417 15.4557 322.727 15.1771 322.992 14.8281L323.867 15.5234C323.685 15.7995 323.453 16.0625 323.172 16.3125C322.891 16.5625 322.544 16.7656 322.133 16.9219C321.727 17.0781 321.245 17.1562 320.688 17.1562ZM330.992 15.3594V5H332.445V17H331.117L330.992 15.3594ZM325.305 12.8672V12.7031C325.305 12.0573 325.383 11.4714 325.539 10.9453C325.701 10.4141 325.927 9.95833 326.219 9.57812C326.516 9.19792 326.867 8.90625 327.273 8.70312C327.685 8.49479 328.143 8.39062 328.648 8.39062C329.18 8.39062 329.643 8.48438 330.039 8.67188C330.44 8.85417 330.779 9.1224 331.055 9.47656C331.336 9.82552 331.557 10.2474 331.719 10.7422C331.88 11.237 331.992 11.7969 332.055 12.4219V13.1406C331.997 13.7604 331.885 14.3177 331.719 14.8125C331.557 15.3073 331.336 15.7292 331.055 16.0781C330.779 16.4271 330.44 16.6953 330.039 16.8828C329.638 17.0651 329.169 17.1562 328.633 17.1562C328.138 17.1562 327.685 17.0495 327.273 16.8359C326.867 16.6224 326.516 16.3229 326.219 15.9375C325.927 15.5521 325.701 15.099 325.539 14.5781C325.383 14.0521 325.305 13.4818 325.305 12.8672ZM326.758 12.7031V12.8672C326.758 13.2891 326.799 13.6849 326.883 14.0547C326.971 14.4245 327.107 14.75 327.289 15.0312C327.471 15.3125 327.703 15.5339 327.984 15.6953C328.266 15.8516 328.602 15.9297 328.992 15.9297C329.471 15.9297 329.865 15.8281 330.172 15.625C330.484 15.4219 330.734 15.1536 330.922 14.8203C331.109 14.487 331.255 14.125 331.359 13.7344V11.8516C331.297 11.5651 331.206 11.2891 331.086 11.0234C330.971 10.7526 330.82 10.513 330.633 10.3047C330.451 10.0911 330.224 9.92188 329.953 9.79688C329.688 9.67188 329.372 9.60938 329.008 9.60938C328.612 9.60938 328.271 9.69271 327.984 9.85938C327.703 10.0208 327.471 10.2448 327.289 10.5312C327.107 10.8125 326.971 11.1406 326.883 11.5156C326.799 11.8854 326.758 12.2812 326.758 12.7031ZM338.656 5H340.109V15.3594L339.984 17H338.656V5ZM345.82 12.7031V12.8672C345.82 13.4818 345.747 14.0521 345.602 14.5781C345.456 15.099 345.242 15.5521 344.961 15.9375C344.68 16.3229 344.336 16.6224 343.93 16.8359C343.523 17.0495 343.057 17.1562 342.531 17.1562C341.995 17.1562 341.523 17.0651 341.117 16.8828C340.716 16.6953 340.378 16.4271 340.102 16.0781C339.826 15.7292 339.604 15.3073 339.438 14.8125C339.276 14.3177 339.164 13.7604 339.102 13.1406V12.4219C339.164 11.7969 339.276 11.237 339.438 10.7422C339.604 10.2474 339.826 9.82552 340.102 9.47656C340.378 9.1224 340.716 8.85417 341.117 8.67188C341.518 8.48438 341.984 8.39062 342.516 8.39062C343.047 8.39062 343.518 8.49479 343.93 8.70312C344.341 8.90625 344.685 9.19792 344.961 9.57812C345.242 9.95833 345.456 10.4141 345.602 10.9453C345.747 11.4714 345.82 12.0573 345.82 12.7031ZM344.367 12.8672V12.7031C344.367 12.2812 344.328 11.8854 344.25 11.5156C344.172 11.1406 344.047 10.8125 343.875 10.5312C343.703 10.2448 343.477 10.0208 343.195 9.85938C342.914 9.69271 342.568 9.60938 342.156 9.60938C341.792 9.60938 341.474 9.67188 341.203 9.79688C340.938 9.92188 340.711 10.0911 340.523 10.3047C340.336 10.513 340.182 10.7526 340.062 11.0234C339.948 11.2891 339.862 11.5651 339.805 11.8516V13.7344C339.888 14.099 340.023 14.4505 340.211 14.7891C340.404 15.1224 340.659 15.3958 340.977 15.6094C341.299 15.8229 341.698 15.9297 342.172 15.9297C342.562 15.9297 342.896 15.8516 343.172 15.6953C343.453 15.5339 343.68 15.3125 343.852 15.0312C344.029 14.75 344.159 14.4245 344.242 14.0547C344.326 13.6849 344.367 13.2891 344.367 12.8672ZM349.93 16.125L352.281 8.54688H353.828L350.438 18.3047C350.359 18.513 350.255 18.737 350.125 18.9766C350 19.2214 349.839 19.4531 349.641 19.6719C349.443 19.8906 349.203 20.0677 348.922 20.2031C348.646 20.3438 348.315 20.4141 347.93 20.4141C347.815 20.4141 347.669 20.3984 347.492 20.3672C347.315 20.3359 347.19 20.3099 347.117 20.2891L347.109 19.1172C347.151 19.1224 347.216 19.1276 347.305 19.1328C347.398 19.1432 347.464 19.1484 347.5 19.1484C347.828 19.1484 348.107 19.1042 348.336 19.0156C348.565 18.9323 348.758 18.7891 348.914 18.5859C349.076 18.388 349.214 18.1146 349.328 17.7656L349.93 16.125ZM348.203 8.54688L350.398 15.1094L350.773 16.6328L349.734 17.1641L346.625 8.54688H348.203Z" fill="#8A95AD"/>
<path d="M608.133 5.625L603.391 17.9766H602.148L606.898 5.625H608.133Z" fill="#8A95AD"/>
<path d="M824.133 5.625L819.391 17.9766H818.148L822.898 5.625H824.133Z" fill="#8A95AD"/>
<path d="M448.133 5.625L443.391 17.9766H442.148L446.898 5.625H448.133Z" fill="#8A95AD"/>
<path d="M8.60938 12.3281H9.75C9.75 13.1458 9.51562 13.7604 9.04688 14.1719C8.58333 14.5781 7.95312 14.7812 7.15625 14.7812C6.60417 14.7812 6.125 14.6536 5.71875 14.3984C5.31771 14.1432 5.00521 13.7891 4.78125 13.3359C4.5625 12.8828 4.45312 12.3568 4.45312 11.7578V10.8594C4.45312 10.2604 4.5625 9.73438 4.78125 9.28125C5.00521 8.82812 5.31771 8.47396 5.71875 8.21875C6.125 7.96354 6.60417 7.83594 7.15625 7.83594C7.95312 7.83594 8.58594 8.03906 9.05469 8.44531C9.52344 8.85156 9.75781 9.46354 9.75781 10.2812H8.61719C8.61719 9.76562 8.49219 9.39583 8.24219 9.17188C7.9974 8.94792 7.63542 8.83594 7.15625 8.83594C6.8125 8.83594 6.52344 8.92188 6.28906 9.09375C6.05469 9.26562 5.8776 9.50521 5.75781 9.8125C5.63802 10.1146 5.57812 10.4609 5.57812 10.8516V11.7578C5.57812 12.1536 5.63802 12.5052 5.75781 12.8125C5.8776 13.1146 6.05469 13.3516 6.28906 13.5234C6.52344 13.6953 6.8125 13.7812 7.15625 13.7812C7.63542 13.7812 7.9974 13.6693 8.24219 13.4453C8.48698 13.2214 8.60938 12.849 8.60938 12.3281ZM2.61719 11.3047C2.61719 11.9974 2.73698 12.6432 2.97656 13.2422C3.21615 13.8411 3.54948 14.3646 3.97656 14.8125C4.40365 15.2604 4.89844 15.6094 5.46094 15.8594C6.02344 16.1094 6.625 16.2344 7.26562 16.2344C7.90625 16.2344 8.50521 16.1094 9.0625 15.8594C9.625 15.6094 10.1172 15.2604 10.5391 14.8125C10.9661 14.3646 11.2995 13.8411 11.5391 13.2422C11.7786 12.6432 11.8984 11.9974 11.8984 11.3047C11.8984 10.6068 11.7786 9.96094 11.5391 9.36719C11.2995 8.77344 10.9661 8.25521 10.5391 7.8125C10.1172 7.36458 9.625 7.01823 9.0625 6.77344C8.50521 6.52344 7.90625 6.39844 7.26562 6.39844C6.625 6.39844 6.02344 6.52344 5.46094 6.77344C4.89844 7.01823 4.40365 7.36458 3.97656 7.8125C3.54948 8.25521 3.21615 8.77344 2.97656 9.36719C2.73698 9.96094 2.61719 10.6068 2.61719 11.3047ZM1.71875 11.3047C1.71875 10.4766 1.86198 9.70833 2.14844 9C2.4349 8.29167 2.83333 7.67448 3.34375 7.14844C3.85417 6.61719 4.44271 6.20573 5.10938 5.91406C5.78125 5.61719 6.5 5.46875 7.26562 5.46875C8.03125 5.46875 8.7474 5.61719 9.41406 5.91406C10.0859 6.20573 10.6745 6.61719 11.1797 7.14844C11.6901 7.67448 12.0885 8.29167 12.375 9C12.6615 9.70833 12.8047 10.4766 12.8047 11.3047C12.8047 12.1328 12.6615 12.901 12.375 13.6094C12.0885 14.3177 11.6901 14.9401 11.1797 15.4766C10.6745 16.0078 10.0859 16.4219 9.41406 16.7188C8.7474 17.0156 8.03125 17.1641 7.26562 17.1641C6.5 17.1641 5.78125 17.0156 5.10938 16.7188C4.44271 16.4219 3.85417 16.0078 3.34375 15.4766C2.83333 14.9401 2.4349 14.3177 2.14844 13.6094C1.86198 12.901 1.71875 12.1328 1.71875 11.3047ZM23.0781 6.63281L19.3125 17H17.7734L22.1094 5.625H23.1016L23.0781 6.63281ZM26.2344 17L22.4609 6.63281L22.4375 5.625H23.4297L27.7812 17H26.2344ZM26.0391 12.7891V14.0234H19.6484V12.7891H26.0391ZM30.6562 5V17H29.2031V5H30.6562ZM34.5469 5V17H33.0938V5H34.5469ZM42.2812 9.875V17H40.8359V8.54688H42.2422L42.2812 9.875ZM44.9219 8.5L44.9141 9.84375C44.7943 9.81771 44.6797 9.80208 44.5703 9.79688C44.4661 9.78646 44.3464 9.78125 44.2109 9.78125C43.8776 9.78125 43.5833 9.83333 43.3281 9.9375C43.0729 10.0417 42.8568 10.1875 42.6797 10.375C42.5026 10.5625 42.362 10.7865 42.2578 11.0469C42.1589 11.3021 42.0938 11.5833 42.0625 11.8906L41.6562 12.125C41.6562 11.6146 41.7057 11.1354 41.8047 10.6875C41.9089 10.2396 42.0677 9.84375 42.2812 9.5C42.4948 9.15104 42.7656 8.88021 43.0938 8.6875C43.4271 8.48958 43.8229 8.39062 44.2812 8.39062C44.3854 8.39062 44.5052 8.40365 44.6406 8.42969C44.776 8.45052 44.8698 8.47396 44.9219 8.5ZM47.8281 8.54688V17H46.375V8.54688H47.8281ZM46.2656 6.30469C46.2656 6.07031 46.3359 5.8724 46.4766 5.71094C46.6224 5.54948 46.8359 5.46875 47.1172 5.46875C47.3932 5.46875 47.6042 5.54948 47.75 5.71094C47.901 5.8724 47.9766 6.07031 47.9766 6.30469C47.9766 6.52865 47.901 6.72135 47.75 6.88281C47.6042 7.03906 47.3932 7.11719 47.1172 7.11719C46.8359 7.11719 46.6224 7.03906 46.4766 6.88281C46.3359 6.72135 46.2656 6.52865 46.2656 6.30469ZM55.625 8.54688H56.9375V16.8203C56.9375 17.5651 56.7865 18.2005 56.4844 18.7266C56.1823 19.2526 55.7604 19.651 55.2188 19.9219C54.6823 20.1979 54.0625 20.3359 53.3594 20.3359C53.0677 20.3359 52.724 20.2891 52.3281 20.1953C51.9375 20.1068 51.5521 19.9531 51.1719 19.7344C50.7969 19.5208 50.4818 19.2318 50.2266 18.8672L50.9844 18.0078C51.3385 18.4349 51.7083 18.7318 52.0938 18.8984C52.4844 19.0651 52.8698 19.1484 53.25 19.1484C53.7083 19.1484 54.1042 19.0625 54.4375 18.8906C54.7708 18.7188 55.0286 18.4635 55.2109 18.125C55.3984 17.7917 55.4922 17.3802 55.4922 16.8906V10.4062L55.625 8.54688ZM49.8047 12.8672V12.7031C49.8047 12.0573 49.8802 11.4714 50.0312 10.9453C50.1875 10.4141 50.4089 9.95833 50.6953 9.57812C50.987 9.19792 51.3385 8.90625 51.75 8.70312C52.1615 8.49479 52.625 8.39062 53.1406 8.39062C53.6719 8.39062 54.1354 8.48438 54.5312 8.67188C54.9323 8.85417 55.2708 9.1224 55.5469 9.47656C55.8281 9.82552 56.0495 10.2474 56.2109 10.7422C56.3724 11.237 56.4844 11.7969 56.5469 12.4219V13.1406C56.4896 13.7604 56.3776 14.3177 56.2109 14.8125C56.0495 15.3073 55.8281 15.7292 55.5469 16.0781C55.2708 16.4271 54.9323 16.6953 54.5312 16.8828C54.1302 17.0651 53.6615 17.1562 53.125 17.1562C52.6198 17.1562 52.1615 17.0495 51.75 16.8359C51.3438 16.6224 50.9948 16.3229 50.7031 15.9375C50.4115 15.5521 50.1875 15.099 50.0312 14.5781C49.8802 14.0521 49.8047 13.4818 49.8047 12.8672ZM51.25 12.7031V12.8672C51.25 13.2891 51.2917 13.6849 51.375 14.0547C51.4635 14.4245 51.5964 14.75 51.7734 15.0312C51.9557 15.3125 52.1875 15.5339 52.4688 15.6953C52.75 15.8516 53.0859 15.9297 53.4766 15.9297C53.9557 15.9297 54.3516 15.8281 54.6641 15.625C54.9766 15.4219 55.224 15.1536 55.4062 14.8203C55.5938 14.487 55.7396 14.125 55.8438 13.7344V11.8516C55.7865 11.5651 55.6979 11.2891 55.5781 11.0234C55.4635 10.7526 55.3125 10.513 55.125 10.3047C54.9427 10.0911 54.7161 9.92188 54.4453 9.79688C54.1745 9.67188 53.8568 9.60938 53.4922 9.60938C53.0964 9.60938 52.7552 9.69271 52.4688 9.85938C52.1875 10.0208 51.9557 10.2448 51.7734 10.5312C51.5964 10.8125 51.4635 11.1406 51.375 11.5156C51.2917 11.8854 51.25 12.2812 51.25 12.7031ZM60.5781 5V17H59.1328V5H60.5781ZM60.2344 12.4531L59.6328 12.4297C59.638 11.8516 59.724 11.3177 59.8906 10.8281C60.0573 10.3333 60.2917 9.90365 60.5938 9.53906C60.8958 9.17448 61.2552 8.89323 61.6719 8.69531C62.0938 8.49219 62.5599 8.39062 63.0703 8.39062C63.487 8.39062 63.862 8.44792 64.1953 8.5625C64.5286 8.67188 64.8125 8.84896 65.0469 9.09375C65.2865 9.33854 65.4688 9.65625 65.5938 10.0469C65.7188 10.4323 65.7812 10.9036 65.7812 11.4609V17H64.3281V11.4453C64.3281 11.0026 64.263 10.6484 64.1328 10.3828C64.0026 10.112 63.8125 9.91667 63.5625 9.79688C63.3125 9.67188 63.0052 9.60938 62.6406 9.60938C62.2812 9.60938 61.9531 9.6849 61.6562 9.83594C61.3646 9.98698 61.112 10.1953 60.8984 10.4609C60.6901 10.7266 60.526 11.0312 60.4062 11.375C60.2917 11.7135 60.2344 12.0729 60.2344 12.4531ZM71.4844 8.54688V9.65625H66.9141V8.54688H71.4844ZM68.4609 6.49219H69.9062V14.9062C69.9062 15.1927 69.9505 15.4089 70.0391 15.5547C70.1276 15.7005 70.2422 15.7969 70.3828 15.8438C70.5234 15.8906 70.6745 15.9141 70.8359 15.9141C70.9557 15.9141 71.0807 15.9036 71.2109 15.8828C71.3464 15.8568 71.4479 15.8359 71.5156 15.8203L71.5234 17C71.4089 17.0365 71.2578 17.0703 71.0703 17.1016C70.888 17.138 70.6667 17.1562 70.4062 17.1562C70.0521 17.1562 69.7266 17.0859 69.4297 16.9453C69.1328 16.8047 68.8958 16.5703 68.7188 16.2422C68.5469 15.9089 68.4609 15.4609 68.4609 14.8984V6.49219ZM78.1016 14.7578C78.1016 14.5495 78.0547 14.3568 77.9609 14.1797C77.8724 13.9974 77.6875 13.8333 77.4062 13.6875C77.1302 13.5365 76.7135 13.4062 76.1562 13.2969C75.6875 13.1979 75.263 13.0807 74.8828 12.9453C74.5078 12.8099 74.1875 12.6458 73.9219 12.4531C73.6615 12.2604 73.4609 12.0339 73.3203 11.7734C73.1797 11.513 73.1094 11.2083 73.1094 10.8594C73.1094 10.526 73.1823 10.2109 73.3281 9.91406C73.4792 9.61719 73.6901 9.35417 73.9609 9.125C74.237 8.89583 74.5677 8.71615 74.9531 8.58594C75.3385 8.45573 75.7682 8.39062 76.2422 8.39062C76.9193 8.39062 77.4974 8.51042 77.9766 8.75C78.4557 8.98958 78.8229 9.3099 79.0781 9.71094C79.3333 10.1068 79.4609 10.5469 79.4609 11.0312H78.0156C78.0156 10.7969 77.9453 10.5703 77.8047 10.3516C77.6693 10.1276 77.4688 9.94271 77.2031 9.79688C76.9427 9.65104 76.6224 9.57812 76.2422 9.57812C75.8411 9.57812 75.5156 9.64062 75.2656 9.76562C75.0208 9.88542 74.8411 10.0391 74.7266 10.2266C74.6172 10.4141 74.5625 10.612 74.5625 10.8203C74.5625 10.9766 74.5885 11.1172 74.6406 11.2422C74.6979 11.362 74.7969 11.474 74.9375 11.5781C75.0781 11.6771 75.276 11.7708 75.5312 11.8594C75.7865 11.9479 76.112 12.0365 76.5078 12.125C77.2005 12.2812 77.7708 12.4688 78.2188 12.6875C78.6667 12.9062 79 13.1745 79.2188 13.4922C79.4375 13.8099 79.5469 14.1953 79.5469 14.6484C79.5469 15.0182 79.4688 15.3568 79.3125 15.6641C79.1615 15.9714 78.9401 16.237 78.6484 16.4609C78.362 16.6797 78.0182 16.8516 77.6172 16.9766C77.2214 17.0964 76.776 17.1562 76.2812 17.1562C75.5365 17.1562 74.9062 17.0234 74.3906 16.7578C73.875 16.4922 73.4844 16.1484 73.2188 15.7266C72.9531 15.3047 72.8203 14.8594 72.8203 14.3906H74.2734C74.2943 14.7865 74.4089 15.1016 74.6172 15.3359C74.8255 15.5651 75.0807 15.7292 75.3828 15.8281C75.6849 15.9219 75.9844 15.9688 76.2812 15.9688C76.6771 15.9688 77.0078 15.9167 77.2734 15.8125C77.5443 15.7083 77.75 15.5651 77.8906 15.3828C78.0312 15.2005 78.1016 14.9922 78.1016 14.7578ZM86.8594 9.875V17H85.4141V8.54688H86.8203L86.8594 9.875ZM89.5 8.5L89.4922 9.84375C89.3724 9.81771 89.2578 9.80208 89.1484 9.79688C89.0443 9.78646 88.9245 9.78125 88.7891 9.78125C88.4557 9.78125 88.1615 9.83333 87.9062 9.9375C87.651 10.0417 87.4349 10.1875 87.2578 10.375C87.0807 10.5625 86.9401 10.7865 86.8359 11.0469C86.737 11.3021 86.6719 11.5833 86.6406 11.8906L86.2344 12.125C86.2344 11.6146 86.2839 11.1354 86.3828 10.6875C86.487 10.2396 86.6458 9.84375 86.8594 9.5C87.0729 9.15104 87.3438 8.88021 87.6719 8.6875C88.0052 8.48958 88.401 8.39062 88.8594 8.39062C88.9635 8.39062 89.0833 8.40365 89.2188 8.42969C89.3542 8.45052 89.4479 8.47396 89.5 8.5ZM94.1875 17.1562C93.599 17.1562 93.0651 17.0573 92.5859 16.8594C92.112 16.6562 91.7031 16.3724 91.3594 16.0078C91.0208 15.6432 90.7604 15.2109 90.5781 14.7109C90.3958 14.2109 90.3047 13.6641 90.3047 13.0703V12.7422C90.3047 12.0547 90.4062 11.4427 90.6094 10.9062C90.8125 10.3646 91.0885 9.90625 91.4375 9.53125C91.7865 9.15625 92.1823 8.8724 92.625 8.67969C93.0677 8.48698 93.526 8.39062 94 8.39062C94.6042 8.39062 95.125 8.49479 95.5625 8.70312C96.0052 8.91146 96.3672 9.20312 96.6484 9.57812C96.9297 9.94792 97.138 10.3854 97.2734 10.8906C97.4089 11.3906 97.4766 11.9375 97.4766 12.5312V13.1797H91.1641V12H96.0312V11.8906C96.0104 11.5156 95.9323 11.151 95.7969 10.7969C95.6667 10.4427 95.4583 10.151 95.1719 9.92188C94.8854 9.69271 94.4948 9.57812 94 9.57812C93.6719 9.57812 93.3698 9.64844 93.0938 9.78906C92.8177 9.92448 92.5807 10.1276 92.3828 10.3984C92.1849 10.6693 92.0312 11 91.9219 11.3906C91.8125 11.7812 91.7578 12.2318 91.7578 12.7422V13.0703C91.7578 13.4714 91.8125 13.849 91.9219 14.2031C92.0365 14.5521 92.2005 14.8594 92.4141 15.125C92.6328 15.3906 92.8958 15.599 93.2031 15.75C93.5156 15.901 93.8698 15.9766 94.2656 15.9766C94.776 15.9766 95.2083 15.8724 95.5625 15.6641C95.9167 15.4557 96.2266 15.1771 96.4922 14.8281L97.3672 15.5234C97.1849 15.7995 96.9531 16.0625 96.6719 16.3125C96.3906 16.5625 96.0443 16.7656 95.6328 16.9219C95.2266 17.0781 94.7448 17.1562 94.1875 17.1562ZM104.086 14.7578C104.086 14.5495 104.039 14.3568 103.945 14.1797C103.857 13.9974 103.672 13.8333 103.391 13.6875C103.115 13.5365 102.698 13.4062 102.141 13.2969C101.672 13.1979 101.247 13.0807 100.867 12.9453C100.492 12.8099 100.172 12.6458 99.9062 12.4531C99.6458 12.2604 99.4453 12.0339 99.3047 11.7734C99.1641 11.513 99.0938 11.2083 99.0938 10.8594C99.0938 10.526 99.1667 10.2109 99.3125 9.91406C99.4635 9.61719 99.6745 9.35417 99.9453 9.125C100.221 8.89583 100.552 8.71615 100.938 8.58594C101.323 8.45573 101.753 8.39062 102.227 8.39062C102.904 8.39062 103.482 8.51042 103.961 8.75C104.44 8.98958 104.807 9.3099 105.062 9.71094C105.318 10.1068 105.445 10.5469 105.445 11.0312H104C104 10.7969 103.93 10.5703 103.789 10.3516C103.654 10.1276 103.453 9.94271 103.188 9.79688C102.927 9.65104 102.607 9.57812 102.227 9.57812C101.826 9.57812 101.5 9.64062 101.25 9.76562C101.005 9.88542 100.826 10.0391 100.711 10.2266C100.602 10.4141 100.547 10.612 100.547 10.8203C100.547 10.9766 100.573 11.1172 100.625 11.2422C100.682 11.362 100.781 11.474 100.922 11.5781C101.062 11.6771 101.26 11.7708 101.516 11.8594C101.771 11.9479 102.096 12.0365 102.492 12.125C103.185 12.2812 103.755 12.4688 104.203 12.6875C104.651 12.9062 104.984 13.1745 105.203 13.4922C105.422 13.8099 105.531 14.1953 105.531 14.6484C105.531 15.0182 105.453 15.3568 105.297 15.6641C105.146 15.9714 104.924 16.237 104.633 16.4609C104.346 16.6797 104.003 16.8516 103.602 16.9766C103.206 17.0964 102.76 17.1562 102.266 17.1562C101.521 17.1562 100.891 17.0234 100.375 16.7578C99.8594 16.4922 99.4688 16.1484 99.2031 15.7266C98.9375 15.3047 98.8047 14.8594 98.8047 14.3906H100.258C100.279 14.7865 100.393 15.1016 100.602 15.3359C100.81 15.5651 101.065 15.7292 101.367 15.8281C101.669 15.9219 101.969 15.9688 102.266 15.9688C102.661 15.9688 102.992 15.9167 103.258 15.8125C103.529 15.7083 103.734 15.5651 103.875 15.3828C104.016 15.2005 104.086 14.9922 104.086 14.7578ZM110.938 17.1562C110.349 17.1562 109.815 17.0573 109.336 16.8594C108.862 16.6562 108.453 16.3724 108.109 16.0078C107.771 15.6432 107.51 15.2109 107.328 14.7109C107.146 14.2109 107.055 13.6641 107.055 13.0703V12.7422C107.055 12.0547 107.156 11.4427 107.359 10.9062C107.562 10.3646 107.839 9.90625 108.188 9.53125C108.536 9.15625 108.932 8.8724 109.375 8.67969C109.818 8.48698 110.276 8.39062 110.75 8.39062C111.354 8.39062 111.875 8.49479 112.312 8.70312C112.755 8.91146 113.117 9.20312 113.398 9.57812C113.68 9.94792 113.888 10.3854 114.023 10.8906C114.159 11.3906 114.227 11.9375 114.227 12.5312V13.1797H107.914V12H112.781V11.8906C112.76 11.5156 112.682 11.151 112.547 10.7969C112.417 10.4427 112.208 10.151 111.922 9.92188C111.635 9.69271 111.245 9.57812 110.75 9.57812C110.422 9.57812 110.12 9.64844 109.844 9.78906C109.568 9.92448 109.331 10.1276 109.133 10.3984C108.935 10.6693 108.781 11 108.672 11.3906C108.562 11.7812 108.508 12.2318 108.508 12.7422V13.0703C108.508 13.4714 108.562 13.849 108.672 14.2031C108.786 14.5521 108.951 14.8594 109.164 15.125C109.383 15.3906 109.646 15.599 109.953 15.75C110.266 15.901 110.62 15.9766 111.016 15.9766C111.526 15.9766 111.958 15.8724 112.312 15.6641C112.667 15.4557 112.977 15.1771 113.242 14.8281L114.117 15.5234C113.935 15.7995 113.703 16.0625 113.422 16.3125C113.141 16.5625 112.794 16.7656 112.383 16.9219C111.977 17.0781 111.495 17.1562 110.938 17.1562ZM117.359 9.875V17H115.914V8.54688H117.32L117.359 9.875ZM120 8.5L119.992 9.84375C119.872 9.81771 119.758 9.80208 119.648 9.79688C119.544 9.78646 119.424 9.78125 119.289 9.78125C118.956 9.78125 118.661 9.83333 118.406 9.9375C118.151 10.0417 117.935 10.1875 117.758 10.375C117.581 10.5625 117.44 10.7865 117.336 11.0469C117.237 11.3021 117.172 11.5833 117.141 11.8906L116.734 12.125C116.734 11.6146 116.784 11.1354 116.883 10.6875C116.987 10.2396 117.146 9.84375 117.359 9.5C117.573 9.15104 117.844 8.88021 118.172 8.6875C118.505 8.48958 118.901 8.39062 119.359 8.39062C119.464 8.39062 119.583 8.40365 119.719 8.42969C119.854 8.45052 119.948 8.47396 120 8.5ZM124.047 15.6953L126.359 8.54688H127.836L124.797 17H123.828L124.047 15.6953ZM122.117 8.54688L124.5 15.7344L124.664 17H123.695L120.633 8.54688H122.117ZM132.625 17.1562C132.036 17.1562 131.503 17.0573 131.023 16.8594C130.549 16.6562 130.141 16.3724 129.797 16.0078C129.458 15.6432 129.198 15.2109 129.016 14.7109C128.833 14.2109 128.742 13.6641 128.742 13.0703V12.7422C128.742 12.0547 128.844 11.4427 129.047 10.9062C129.25 10.3646 129.526 9.90625 129.875 9.53125C130.224 9.15625 130.62 8.8724 131.062 8.67969C131.505 8.48698 131.964 8.39062 132.438 8.39062C133.042 8.39062 133.562 8.49479 134 8.70312C134.443 8.91146 134.805 9.20312 135.086 9.57812C135.367 9.94792 135.576 10.3854 135.711 10.8906C135.846 11.3906 135.914 11.9375 135.914 12.5312V13.1797H129.602V12H134.469V11.8906C134.448 11.5156 134.37 11.151 134.234 10.7969C134.104 10.4427 133.896 10.151 133.609 9.92188C133.323 9.69271 132.932 9.57812 132.438 9.57812C132.109 9.57812 131.807 9.64844 131.531 9.78906C131.255 9.92448 131.018 10.1276 130.82 10.3984C130.622 10.6693 130.469 11 130.359 11.3906C130.25 11.7812 130.195 12.2318 130.195 12.7422V13.0703C130.195 13.4714 130.25 13.849 130.359 14.2031C130.474 14.5521 130.638 14.8594 130.852 15.125C131.07 15.3906 131.333 15.599 131.641 15.75C131.953 15.901 132.307 15.9766 132.703 15.9766C133.214 15.9766 133.646 15.8724 134 15.6641C134.354 15.4557 134.664 15.1771 134.93 14.8281L135.805 15.5234C135.622 15.7995 135.391 16.0625 135.109 16.3125C134.828 16.5625 134.482 16.7656 134.07 16.9219C133.664 17.0781 133.182 17.1562 132.625 17.1562ZM142.93 15.3594V5H144.383V17H143.055L142.93 15.3594ZM137.242 12.8672V12.7031C137.242 12.0573 137.32 11.4714 137.477 10.9453C137.638 10.4141 137.865 9.95833 138.156 9.57812C138.453 9.19792 138.805 8.90625 139.211 8.70312C139.622 8.49479 140.081 8.39062 140.586 8.39062C141.117 8.39062 141.581 8.48438 141.977 8.67188C142.378 8.85417 142.716 9.1224 142.992 9.47656C143.273 9.82552 143.495 10.2474 143.656 10.7422C143.818 11.237 143.93 11.7969 143.992 12.4219V13.1406C143.935 13.7604 143.823 14.3177 143.656 14.8125C143.495 15.3073 143.273 15.7292 142.992 16.0781C142.716 16.4271 142.378 16.6953 141.977 16.8828C141.576 17.0651 141.107 17.1562 140.57 17.1562C140.076 17.1562 139.622 17.0495 139.211 16.8359C138.805 16.6224 138.453 16.3229 138.156 15.9375C137.865 15.5521 137.638 15.099 137.477 14.5781C137.32 14.0521 137.242 13.4818 137.242 12.8672ZM138.695 12.7031V12.8672C138.695 13.2891 138.737 13.6849 138.82 14.0547C138.909 14.4245 139.044 14.75 139.227 15.0312C139.409 15.3125 139.641 15.5339 139.922 15.6953C140.203 15.8516 140.539 15.9297 140.93 15.9297C141.409 15.9297 141.802 15.8281 142.109 15.625C142.422 15.4219 142.672 15.1536 142.859 14.8203C143.047 14.487 143.193 14.125 143.297 13.7344V11.8516C143.234 11.5651 143.143 11.2891 143.023 11.0234C142.909 10.7526 142.758 10.513 142.57 10.3047C142.388 10.0911 142.161 9.92188 141.891 9.79688C141.625 9.67188 141.31 9.60938 140.945 9.60938C140.549 9.60938 140.208 9.69271 139.922 9.85938C139.641 10.0208 139.409 10.2448 139.227 10.5312C139.044 10.8125 138.909 11.1406 138.82 11.5156C138.737 11.8854 138.695 12.2812 138.695 12.7031ZM146.656 16.2344C146.656 15.9896 146.732 15.7839 146.883 15.6172C147.039 15.4453 147.263 15.3594 147.555 15.3594C147.846 15.3594 148.068 15.4453 148.219 15.6172C148.375 15.7839 148.453 15.9896 148.453 16.2344C148.453 16.474 148.375 16.6771 148.219 16.8438C148.068 17.0104 147.846 17.0938 147.555 17.0938C147.263 17.0938 147.039 17.0104 146.883 16.8438C146.732 16.6771 146.656 16.474 146.656 16.2344Z" fill="#8A95AD"/>
<path d="M721.133 5.625L716.391 17.9766H715.148L719.898 5.625H721.133Z" fill="#8A95AD"/>
</svg>
