<svg width="50" height="50" viewBox="0 0 50 50" fill="none" xmlns="http://www.w3.org/2000/svg">
<g clip-path="url(#clip0_1_801)">
<path d="M50 24.8151C50 11.2204 38.8071 0.199707 25 0.199707C11.1929 0.199707 0 11.2204 0 24.8151C0 38.4098 11.1929 49.4305 25 49.4305C38.8071 49.4305 50 38.4098 50 24.8151Z" fill="#FFC960"/>
<path d="M35.8131 20.1475C35.5896 19.9638 35.3181 19.8457 35.0297 19.8065C34.7412 19.7675 34.4474 19.809 34.1818 19.9264L29.242 22.0881L26.3658 16.9906C26.2305 16.7508 26.0324 16.5509 25.7923 16.4118C25.5521 16.2726 25.2786 16.1992 24.9999 16.1992C24.7212 16.1992 24.4477 16.2726 24.2075 16.4118C23.9673 16.5509 23.7694 16.7508 23.6341 16.9906L20.7577 22.0881L15.8172 19.926C15.5513 19.8097 15.2578 19.7688 14.9697 19.8078C14.6815 19.8469 14.4101 19.9644 14.1861 20.1471C13.962 20.3298 13.7943 20.5704 13.7016 20.8418C13.6089 21.1134 13.5951 21.4049 13.6616 21.6838L16.1465 32.1004C16.1937 32.3021 16.2823 32.4921 16.4066 32.6589C16.5311 32.8258 16.6887 32.9659 16.8699 33.0708C17.0521 33.1763 17.254 33.2448 17.4636 33.2721C17.6731 33.2994 17.8862 33.2849 18.09 33.2295C22.6105 32.0008 27.3845 32.0003 31.9052 33.2282C32.109 33.2835 32.3219 33.2979 32.5314 33.2707C32.7409 33.2434 32.9427 33.175 33.1248 33.0695C33.3059 32.9647 33.4634 32.8247 33.5879 32.6579C33.7123 32.4912 33.8008 32.3013 33.8482 32.0998L36.3373 21.6846C36.4051 21.4058 36.3919 21.1138 36.2991 20.842C36.2065 20.5702 36.038 20.3296 35.8131 20.1475ZM28.9019 28.7033C28.8912 28.8038 28.8606 28.9013 28.8117 28.9901C28.7627 29.079 28.6966 29.1575 28.6168 29.221C28.537 29.2846 28.4453 29.3321 28.3469 29.3607C28.2484 29.3894 28.1452 29.3986 28.0432 29.3878C26.0199 29.1787 23.9799 29.1787 21.9566 29.3878C21.7509 29.4085 21.5454 29.3479 21.3849 29.2196C21.2245 29.0912 21.1223 28.9055 21.1006 28.7031C21.079 28.5006 21.1398 28.298 21.2695 28.1396C21.3994 27.9811 21.5877 27.8798 21.7932 27.8578C23.9252 27.6374 26.0747 27.6374 28.2066 27.8578C28.3087 27.8685 28.4076 27.8987 28.4977 27.9468C28.5879 27.9951 28.6676 28.0603 28.7321 28.1388C28.7966 28.2173 28.8449 28.3076 28.874 28.4045C28.9031 28.5013 28.9126 28.6028 28.9019 28.7033Z" fill="#543700"/>
</g>
<defs>
<clipPath id="clip0_1_801">
<rect width="50" height="50" fill="white"/>
</clipPath>
</defs>
</svg>
