<svg width="50" height="50" viewBox="0 0 50 50" fill="none" xmlns="http://www.w3.org/2000/svg">
<g clip-path="url(#clip0_1_786)">
<path d="M50 24.8244C50 11.2297 38.8071 0.208984 25 0.208984C11.1929 0.208984 0 11.2297 0 24.8244C0 38.4191 11.1929 49.4398 25 49.4398C38.8071 49.4398 50 38.4191 50 24.8244Z" fill="#A5BEFF"/>
<path d="M33.0369 17.7249L25.2244 15.4172C25.1078 15.3828 24.9846 15.3756 24.8647 15.3964C24.7447 15.4172 24.6313 15.4652 24.5336 15.5368C24.4359 15.6085 24.3565 15.7015 24.3018 15.8087C24.2472 15.9158 24.2187 16.0341 24.2187 16.154V20.7521C24.2184 20.7638 24.2184 20.7755 24.2187 20.7873V26.5638C23.419 25.8598 22.398 25.4474 21.3266 25.3955C20.2551 25.3435 19.198 25.6552 18.3319 26.2785C17.4658 26.9017 16.8432 27.7987 16.5681 28.8196C16.2929 29.8405 16.382 30.9235 16.8204 31.8875C17.2586 32.8516 18.0197 33.6383 18.9764 34.1163C19.933 34.5942 21.0273 34.7345 22.0763 34.5135C23.1254 34.2925 24.0655 33.7238 24.7399 32.9023C25.4142 32.0808 25.7818 31.0564 25.7812 30.0002V21.8032L32.5879 23.8138C32.7046 23.8483 32.8279 23.8555 32.9478 23.8347C33.0677 23.8139 33.1811 23.7658 33.2788 23.6942C33.3765 23.6226 33.4559 23.5295 33.5106 23.4224C33.5652 23.3152 33.5937 23.197 33.5937 23.0771V18.4617C33.5937 18.2962 33.5396 18.1352 33.4393 18.0025C33.339 17.8698 33.1979 17.7725 33.0369 17.7249Z" fill="#0033B6"/>
</g>
<defs>
<clipPath id="clip0_1_786">
<rect width="50" height="50" fill="white"/>
</clipPath>
</defs>
</svg>
