<svg width="50" height="50" viewBox="0 0 50 50" fill="none" xmlns="http://www.w3.org/2000/svg">
<g clip-path="url(#clip0_1_770)">
<path d="M50 25C50 11.1929 38.8071 0 25 0C11.1929 0 0 11.1929 0 25C0 38.8071 11.1929 50 25 50C38.8071 50 50 38.8071 50 25Z" fill="#FFB4E9"/>
<path d="M26.5625 33.5938H23.4375C23.2303 33.5938 23.0316 33.6761 22.8851 33.8226C22.7386 33.9691 22.6562 34.1678 22.6562 34.375C22.6562 34.5822 22.7386 34.7809 22.8851 34.9274C23.0316 35.0739 23.2303 35.1562 23.4375 35.1562H26.5625C26.7697 35.1562 26.9684 35.0739 27.1149 34.9274C27.2614 34.7809 27.3438 34.5822 27.3438 34.375C27.3438 34.1678 27.2614 33.9691 27.1149 33.8226C26.9684 33.6761 26.7697 33.5938 26.5625 33.5938Z" fill="#D10094"/>
<path d="M33.9481 26.5485L30.9953 23.0051C30.9008 21.8379 30.6384 20.6906 30.216 19.5985C29.0815 16.6481 27.0757 14.7158 25.9811 13.8265C25.7035 13.6031 25.3582 13.4807 25.0018 13.4795C24.6455 13.4783 24.2993 13.5984 24.0203 13.82C22.9114 14.7083 20.8799 16.6393 19.734 19.59C19.2974 20.7068 19.0308 21.8829 18.9432 23.0787L16.0518 26.5485C15.8995 26.7324 15.7911 26.9486 15.7347 27.1806C15.6784 27.4126 15.6757 27.6544 15.7268 27.8877L16.9341 33.3206C16.9914 33.5798 17.1137 33.8202 17.2897 34.019C17.4657 34.2177 17.6894 34.3683 17.9398 34.4565C18.1902 34.5447 18.459 34.5676 18.7207 34.523C18.9824 34.4785 19.2284 34.3679 19.4354 34.2018L22.149 32.031H27.8509L30.5643 34.2018C30.8401 34.4237 31.1834 34.5449 31.5375 34.5452C31.7154 34.545 31.8919 34.5147 32.0596 34.4554C32.3103 34.368 32.5344 34.2179 32.7106 34.0192C32.8867 33.8205 33.009 33.5801 33.0658 33.3207L34.2731 27.8878C34.3242 27.6545 34.3215 27.4127 34.2651 27.1806C34.2088 26.9486 34.1004 26.7324 33.9481 26.5485ZM18.4594 32.9817L17.2521 27.5487L19.0027 25.4479C19.2247 27.2733 19.8477 29.1412 20.8719 31.0517L18.4594 32.9817ZM24.9999 23.0466C24.7682 23.0466 24.5416 22.9779 24.3489 22.8491C24.1561 22.7204 24.006 22.5373 23.9172 22.3232C23.8286 22.109 23.8054 21.8734 23.8506 21.6461C23.8958 21.4188 24.0074 21.21 24.1713 21.0461C24.3352 20.8822 24.544 20.7706 24.7713 20.7254C24.9986 20.6802 25.2343 20.7034 25.4484 20.7921C25.6625 20.8808 25.8455 21.031 25.9743 21.2237C26.1031 21.4164 26.1718 21.6429 26.1718 21.8747C26.1718 22.1855 26.0483 22.4836 25.8286 22.7034C25.6088 22.9232 25.3108 23.0466 24.9999 23.0466ZM31.5404 32.9817L29.1235 31.0481C30.1346 29.1241 30.7447 27.2401 30.9539 25.3961L32.7478 27.5487L31.5404 32.9817Z" fill="#D10094"/>
</g>
<defs>
<clipPath id="clip0_1_770">
<rect width="50" height="50" fill="white"/>
</clipPath>
</defs>
</svg>
